<?xml version="1.0" encoding="utf-8" standalone="no"?>
<!DOCTYPE svg PUBLIC "-//W3C//DTD SVG 1.1//EN"
  "http://www.w3.org/Graphics/SVG/1.1/DTD/svg11.dtd">
<!-- Created with matplotlib (https://matplotlib.org/) -->
<svg height="720pt" version="1.1" viewBox="0 0 1080 720" width="1080pt" xmlns="http://www.w3.org/2000/svg" xmlns:xlink="http://www.w3.org/1999/xlink">
 <metadata>
  <rdf:RDF xmlns:cc="http://creativecommons.org/ns#" xmlns:dc="http://purl.org/dc/elements/1.1/" xmlns:rdf="http://www.w3.org/1999/02/22-rdf-syntax-ns#">
   <cc:Work>
    <dc:type rdf:resource="http://purl.org/dc/dcmitype/StillImage"/>
    <dc:date>2020-10-27T17:55:21.428605</dc:date>
    <dc:format>image/svg+xml</dc:format>
    <dc:creator>
     <cc:Agent>
      <dc:title>Matplotlib v3.3.2, https://matplotlib.org/</dc:title>
     </cc:Agent>
    </dc:creator>
   </cc:Work>
  </rdf:RDF>
 </metadata>
 <defs>
  <style type="text/css">*{stroke-linecap:butt;stroke-linejoin:round;}</style>
 </defs>
 <g id="figure_1">
  <g id="patch_1">
   <path d="M 0 720 
L 1080 720 
L 1080 0 
L 0 0 
z
" style="fill:#f0f0f0;"/>
  </g>
  <g id="axes_1">
   <g id="patch_2">
    <path d="M 86.4 669.6 
L 1026 669.6 
L 1026 86.4 
L 86.4 86.4 
z
" style="fill:#f0f0f0;"/>
   </g>
   <g id="matplotlib.axis_1">
    <g id="xtick_1">
     <g id="line2d_1">
      <path clip-path="url(#p1303fd299c)" d="M 129.109091 669.6 
L 129.109091 86.4 
" style="fill:none;stroke:#cbcbcb;"/>
     </g>
     <g id="line2d_2"/>
     <g id="text_1">
      <!-- 0.0 -->
      <g transform="translate(117.976903 683.737813)scale(0.14 -0.14)">
       <defs>
        <path d="M 31.78125 66.40625 
Q 24.171875 66.40625 20.328125 58.90625 
Q 16.5 51.421875 16.5 36.375 
Q 16.5 21.390625 20.328125 13.890625 
Q 24.171875 6.390625 31.78125 6.390625 
Q 39.453125 6.390625 43.28125 13.890625 
Q 47.125 21.390625 47.125 36.375 
Q 47.125 51.421875 43.28125 58.90625 
Q 39.453125 66.40625 31.78125 66.40625 
z
M 31.78125 74.21875 
Q 44.046875 74.21875 50.515625 64.515625 
Q 56.984375 54.828125 56.984375 36.375 
Q 56.984375 17.96875 50.515625 8.265625 
Q 44.046875 -1.421875 31.78125 -1.421875 
Q 19.53125 -1.421875 13.0625 8.265625 
Q 6.59375 17.96875 6.59375 36.375 
Q 6.59375 54.828125 13.0625 64.515625 
Q 19.53125 74.21875 31.78125 74.21875 
z
" id="DejaVuSans-48"/>
        <path d="M 10.6875 12.40625 
L 21 12.40625 
L 21 0 
L 10.6875 0 
z
" id="DejaVuSans-46"/>
       </defs>
       <use xlink:href="#DejaVuSans-48"/>
       <use x="63.623047" xlink:href="#DejaVuSans-46"/>
       <use x="95.410156" xlink:href="#DejaVuSans-48"/>
      </g>
     </g>
    </g>
    <g id="xtick_2">
     <g id="line2d_3">
      <path clip-path="url(#p1303fd299c)" d="M 299.945455 669.6 
L 299.945455 86.4 
" style="fill:none;stroke:#cbcbcb;"/>
     </g>
     <g id="line2d_4"/>
     <g id="text_2">
      <!-- 0.2 -->
      <g transform="translate(288.813267 683.737813)scale(0.14 -0.14)">
       <defs>
        <path d="M 19.1875 8.296875 
L 53.609375 8.296875 
L 53.609375 0 
L 7.328125 0 
L 7.328125 8.296875 
Q 12.9375 14.109375 22.625 23.890625 
Q 32.328125 33.6875 34.8125 36.53125 
Q 39.546875 41.84375 41.421875 45.53125 
Q 43.3125 49.21875 43.3125 52.78125 
Q 43.3125 58.59375 39.234375 62.25 
Q 35.15625 65.921875 28.609375 65.921875 
Q 23.96875 65.921875 18.8125 64.3125 
Q 13.671875 62.703125 7.8125 59.421875 
L 7.8125 69.390625 
Q 13.765625 71.78125 18.9375 73 
Q 24.125 74.21875 28.421875 74.21875 
Q 39.75 74.21875 46.484375 68.546875 
Q 53.21875 62.890625 53.21875 53.421875 
Q 53.21875 48.921875 51.53125 44.890625 
Q 49.859375 40.875 45.40625 35.40625 
Q 44.1875 33.984375 37.640625 27.21875 
Q 31.109375 20.453125 19.1875 8.296875 
z
" id="DejaVuSans-50"/>
       </defs>
       <use xlink:href="#DejaVuSans-48"/>
       <use x="63.623047" xlink:href="#DejaVuSans-46"/>
       <use x="95.410156" xlink:href="#DejaVuSans-50"/>
      </g>
     </g>
    </g>
    <g id="xtick_3">
     <g id="line2d_5">
      <path clip-path="url(#p1303fd299c)" d="M 470.781818 669.6 
L 470.781818 86.4 
" style="fill:none;stroke:#cbcbcb;"/>
     </g>
     <g id="line2d_6"/>
     <g id="text_3">
      <!-- 0.4 -->
      <g transform="translate(459.649631 683.737813)scale(0.14 -0.14)">
       <defs>
        <path d="M 37.796875 64.3125 
L 12.890625 25.390625 
L 37.796875 25.390625 
z
M 35.203125 72.90625 
L 47.609375 72.90625 
L 47.609375 25.390625 
L 58.015625 25.390625 
L 58.015625 17.1875 
L 47.609375 17.1875 
L 47.609375 0 
L 37.796875 0 
L 37.796875 17.1875 
L 4.890625 17.1875 
L 4.890625 26.703125 
z
" id="DejaVuSans-52"/>
       </defs>
       <use xlink:href="#DejaVuSans-48"/>
       <use x="63.623047" xlink:href="#DejaVuSans-46"/>
       <use x="95.410156" xlink:href="#DejaVuSans-52"/>
      </g>
     </g>
    </g>
    <g id="xtick_4">
     <g id="line2d_7">
      <path clip-path="url(#p1303fd299c)" d="M 641.618182 669.6 
L 641.618182 86.4 
" style="fill:none;stroke:#cbcbcb;"/>
     </g>
     <g id="line2d_8"/>
     <g id="text_4">
      <!-- 0.6 -->
      <g transform="translate(630.485994 683.737813)scale(0.14 -0.14)">
       <defs>
        <path d="M 33.015625 40.375 
Q 26.375 40.375 22.484375 35.828125 
Q 18.609375 31.296875 18.609375 23.390625 
Q 18.609375 15.53125 22.484375 10.953125 
Q 26.375 6.390625 33.015625 6.390625 
Q 39.65625 6.390625 43.53125 10.953125 
Q 47.40625 15.53125 47.40625 23.390625 
Q 47.40625 31.296875 43.53125 35.828125 
Q 39.65625 40.375 33.015625 40.375 
z
M 52.59375 71.296875 
L 52.59375 62.3125 
Q 48.875 64.0625 45.09375 64.984375 
Q 41.3125 65.921875 37.59375 65.921875 
Q 27.828125 65.921875 22.671875 59.328125 
Q 17.53125 52.734375 16.796875 39.40625 
Q 19.671875 43.65625 24.015625 45.921875 
Q 28.375 48.1875 33.59375 48.1875 
Q 44.578125 48.1875 50.953125 41.515625 
Q 57.328125 34.859375 57.328125 23.390625 
Q 57.328125 12.15625 50.6875 5.359375 
Q 44.046875 -1.421875 33.015625 -1.421875 
Q 20.359375 -1.421875 13.671875 8.265625 
Q 6.984375 17.96875 6.984375 36.375 
Q 6.984375 53.65625 15.1875 63.9375 
Q 23.390625 74.21875 37.203125 74.21875 
Q 40.921875 74.21875 44.703125 73.484375 
Q 48.484375 72.75 52.59375 71.296875 
z
" id="DejaVuSans-54"/>
       </defs>
       <use xlink:href="#DejaVuSans-48"/>
       <use x="63.623047" xlink:href="#DejaVuSans-46"/>
       <use x="95.410156" xlink:href="#DejaVuSans-54"/>
      </g>
     </g>
    </g>
    <g id="xtick_5">
     <g id="line2d_9">
      <path clip-path="url(#p1303fd299c)" d="M 812.454545 669.6 
L 812.454545 86.4 
" style="fill:none;stroke:#cbcbcb;"/>
     </g>
     <g id="line2d_10"/>
     <g id="text_5">
      <!-- 0.8 -->
      <g transform="translate(801.322358 683.737813)scale(0.14 -0.14)">
       <defs>
        <path d="M 31.78125 34.625 
Q 24.75 34.625 20.71875 30.859375 
Q 16.703125 27.09375 16.703125 20.515625 
Q 16.703125 13.921875 20.71875 10.15625 
Q 24.75 6.390625 31.78125 6.390625 
Q 38.8125 6.390625 42.859375 10.171875 
Q 46.921875 13.96875 46.921875 20.515625 
Q 46.921875 27.09375 42.890625 30.859375 
Q 38.875 34.625 31.78125 34.625 
z
M 21.921875 38.8125 
Q 15.578125 40.375 12.03125 44.71875 
Q 8.5 49.078125 8.5 55.328125 
Q 8.5 64.0625 14.71875 69.140625 
Q 20.953125 74.21875 31.78125 74.21875 
Q 42.671875 74.21875 48.875 69.140625 
Q 55.078125 64.0625 55.078125 55.328125 
Q 55.078125 49.078125 51.53125 44.71875 
Q 48 40.375 41.703125 38.8125 
Q 48.828125 37.15625 52.796875 32.3125 
Q 56.78125 27.484375 56.78125 20.515625 
Q 56.78125 9.90625 50.3125 4.234375 
Q 43.84375 -1.421875 31.78125 -1.421875 
Q 19.734375 -1.421875 13.25 4.234375 
Q 6.78125 9.90625 6.78125 20.515625 
Q 6.78125 27.484375 10.78125 32.3125 
Q 14.796875 37.15625 21.921875 38.8125 
z
M 18.3125 54.390625 
Q 18.3125 48.734375 21.84375 45.5625 
Q 25.390625 42.390625 31.78125 42.390625 
Q 38.140625 42.390625 41.71875 45.5625 
Q 45.3125 48.734375 45.3125 54.390625 
Q 45.3125 60.0625 41.71875 63.234375 
Q 38.140625 66.40625 31.78125 66.40625 
Q 25.390625 66.40625 21.84375 63.234375 
Q 18.3125 60.0625 18.3125 54.390625 
z
" id="DejaVuSans-56"/>
       </defs>
       <use xlink:href="#DejaVuSans-48"/>
       <use x="63.623047" xlink:href="#DejaVuSans-46"/>
       <use x="95.410156" xlink:href="#DejaVuSans-56"/>
      </g>
     </g>
    </g>
    <g id="xtick_6">
     <g id="line2d_11">
      <path clip-path="url(#p1303fd299c)" d="M 983.290909 669.6 
L 983.290909 86.4 
" style="fill:none;stroke:#cbcbcb;"/>
     </g>
     <g id="line2d_12"/>
     <g id="text_6">
      <!-- 1.0 -->
      <g transform="translate(972.158722 683.737813)scale(0.14 -0.14)">
       <defs>
        <path d="M 12.40625 8.296875 
L 28.515625 8.296875 
L 28.515625 63.921875 
L 10.984375 60.40625 
L 10.984375 69.390625 
L 28.421875 72.90625 
L 38.28125 72.90625 
L 38.28125 8.296875 
L 54.390625 8.296875 
L 54.390625 0 
L 12.40625 0 
z
" id="DejaVuSans-49"/>
       </defs>
       <use xlink:href="#DejaVuSans-49"/>
       <use x="63.623047" xlink:href="#DejaVuSans-46"/>
       <use x="95.410156" xlink:href="#DejaVuSans-48"/>
      </g>
     </g>
    </g>
    <g id="text_7">
     <!-- False positive rate -->
     <g transform="translate(479.758688 703.41475)scale(0.168 -0.168)">
      <defs>
       <path d="M 9.8125 72.90625 
L 51.703125 72.90625 
L 51.703125 64.59375 
L 19.671875 64.59375 
L 19.671875 43.109375 
L 48.578125 43.109375 
L 48.578125 34.8125 
L 19.671875 34.8125 
L 19.671875 0 
L 9.8125 0 
z
" id="DejaVuSans-70"/>
       <path d="M 34.28125 27.484375 
Q 23.390625 27.484375 19.1875 25 
Q 14.984375 22.515625 14.984375 16.5 
Q 14.984375 11.71875 18.140625 8.90625 
Q 21.296875 6.109375 26.703125 6.109375 
Q 34.1875 6.109375 38.703125 11.40625 
Q 43.21875 16.703125 43.21875 25.484375 
L 43.21875 27.484375 
z
M 52.203125 31.203125 
L 52.203125 0 
L 43.21875 0 
L 43.21875 8.296875 
Q 40.140625 3.328125 35.546875 0.953125 
Q 30.953125 -1.421875 24.3125 -1.421875 
Q 15.921875 -1.421875 10.953125 3.296875 
Q 6 8.015625 6 15.921875 
Q 6 25.140625 12.171875 29.828125 
Q 18.359375 34.515625 30.609375 34.515625 
L 43.21875 34.515625 
L 43.21875 35.40625 
Q 43.21875 41.609375 39.140625 45 
Q 35.0625 48.390625 27.6875 48.390625 
Q 23 48.390625 18.546875 47.265625 
Q 14.109375 46.140625 10.015625 43.890625 
L 10.015625 52.203125 
Q 14.9375 54.109375 19.578125 55.046875 
Q 24.21875 56 28.609375 56 
Q 40.484375 56 46.34375 49.84375 
Q 52.203125 43.703125 52.203125 31.203125 
z
" id="DejaVuSans-97"/>
       <path d="M 9.421875 75.984375 
L 18.40625 75.984375 
L 18.40625 0 
L 9.421875 0 
z
" id="DejaVuSans-108"/>
       <path d="M 44.28125 53.078125 
L 44.28125 44.578125 
Q 40.484375 46.53125 36.375 47.5 
Q 32.28125 48.484375 27.875 48.484375 
Q 21.1875 48.484375 17.84375 46.4375 
Q 14.5 44.390625 14.5 40.28125 
Q 14.5 37.15625 16.890625 35.375 
Q 19.28125 33.59375 26.515625 31.984375 
L 29.59375 31.296875 
Q 39.15625 29.25 43.1875 25.515625 
Q 47.21875 21.78125 47.21875 15.09375 
Q 47.21875 7.46875 41.1875 3.015625 
Q 35.15625 -1.421875 24.609375 -1.421875 
Q 20.21875 -1.421875 15.453125 -0.5625 
Q 10.6875 0.296875 5.421875 2 
L 5.421875 11.28125 
Q 10.40625 8.6875 15.234375 7.390625 
Q 20.0625 6.109375 24.8125 6.109375 
Q 31.15625 6.109375 34.5625 8.28125 
Q 37.984375 10.453125 37.984375 14.40625 
Q 37.984375 18.0625 35.515625 20.015625 
Q 33.0625 21.96875 24.703125 23.78125 
L 21.578125 24.515625 
Q 13.234375 26.265625 9.515625 29.90625 
Q 5.8125 33.546875 5.8125 39.890625 
Q 5.8125 47.609375 11.28125 51.796875 
Q 16.75 56 26.8125 56 
Q 31.78125 56 36.171875 55.265625 
Q 40.578125 54.546875 44.28125 53.078125 
z
" id="DejaVuSans-115"/>
       <path d="M 56.203125 29.59375 
L 56.203125 25.203125 
L 14.890625 25.203125 
Q 15.484375 15.921875 20.484375 11.0625 
Q 25.484375 6.203125 34.421875 6.203125 
Q 39.59375 6.203125 44.453125 7.46875 
Q 49.3125 8.734375 54.109375 11.28125 
L 54.109375 2.78125 
Q 49.265625 0.734375 44.1875 -0.34375 
Q 39.109375 -1.421875 33.890625 -1.421875 
Q 20.796875 -1.421875 13.15625 6.1875 
Q 5.515625 13.8125 5.515625 26.8125 
Q 5.515625 40.234375 12.765625 48.109375 
Q 20.015625 56 32.328125 56 
Q 43.359375 56 49.78125 48.890625 
Q 56.203125 41.796875 56.203125 29.59375 
z
M 47.21875 32.234375 
Q 47.125 39.59375 43.09375 43.984375 
Q 39.0625 48.390625 32.421875 48.390625 
Q 24.90625 48.390625 20.390625 44.140625 
Q 15.875 39.890625 15.1875 32.171875 
z
" id="DejaVuSans-101"/>
       <path id="DejaVuSans-32"/>
       <path d="M 18.109375 8.203125 
L 18.109375 -20.796875 
L 9.078125 -20.796875 
L 9.078125 54.6875 
L 18.109375 54.6875 
L 18.109375 46.390625 
Q 20.953125 51.265625 25.265625 53.625 
Q 29.59375 56 35.59375 56 
Q 45.5625 56 51.78125 48.09375 
Q 58.015625 40.1875 58.015625 27.296875 
Q 58.015625 14.40625 51.78125 6.484375 
Q 45.5625 -1.421875 35.59375 -1.421875 
Q 29.59375 -1.421875 25.265625 0.953125 
Q 20.953125 3.328125 18.109375 8.203125 
z
M 48.6875 27.296875 
Q 48.6875 37.203125 44.609375 42.84375 
Q 40.53125 48.484375 33.40625 48.484375 
Q 26.265625 48.484375 22.1875 42.84375 
Q 18.109375 37.203125 18.109375 27.296875 
Q 18.109375 17.390625 22.1875 11.75 
Q 26.265625 6.109375 33.40625 6.109375 
Q 40.53125 6.109375 44.609375 11.75 
Q 48.6875 17.390625 48.6875 27.296875 
z
" id="DejaVuSans-112"/>
       <path d="M 30.609375 48.390625 
Q 23.390625 48.390625 19.1875 42.75 
Q 14.984375 37.109375 14.984375 27.296875 
Q 14.984375 17.484375 19.15625 11.84375 
Q 23.34375 6.203125 30.609375 6.203125 
Q 37.796875 6.203125 41.984375 11.859375 
Q 46.1875 17.53125 46.1875 27.296875 
Q 46.1875 37.015625 41.984375 42.703125 
Q 37.796875 48.390625 30.609375 48.390625 
z
M 30.609375 56 
Q 42.328125 56 49.015625 48.375 
Q 55.71875 40.765625 55.71875 27.296875 
Q 55.71875 13.875 49.015625 6.21875 
Q 42.328125 -1.421875 30.609375 -1.421875 
Q 18.84375 -1.421875 12.171875 6.21875 
Q 5.515625 13.875 5.515625 27.296875 
Q 5.515625 40.765625 12.171875 48.375 
Q 18.84375 56 30.609375 56 
z
" id="DejaVuSans-111"/>
       <path d="M 9.421875 54.6875 
L 18.40625 54.6875 
L 18.40625 0 
L 9.421875 0 
z
M 9.421875 75.984375 
L 18.40625 75.984375 
L 18.40625 64.59375 
L 9.421875 64.59375 
z
" id="DejaVuSans-105"/>
       <path d="M 18.3125 70.21875 
L 18.3125 54.6875 
L 36.8125 54.6875 
L 36.8125 47.703125 
L 18.3125 47.703125 
L 18.3125 18.015625 
Q 18.3125 11.328125 20.140625 9.421875 
Q 21.96875 7.515625 27.59375 7.515625 
L 36.8125 7.515625 
L 36.8125 0 
L 27.59375 0 
Q 17.1875 0 13.234375 3.875 
Q 9.28125 7.765625 9.28125 18.015625 
L 9.28125 47.703125 
L 2.6875 47.703125 
L 2.6875 54.6875 
L 9.28125 54.6875 
L 9.28125 70.21875 
z
" id="DejaVuSans-116"/>
       <path d="M 2.984375 54.6875 
L 12.5 54.6875 
L 29.59375 8.796875 
L 46.6875 54.6875 
L 56.203125 54.6875 
L 35.6875 0 
L 23.484375 0 
z
" id="DejaVuSans-118"/>
       <path d="M 41.109375 46.296875 
Q 39.59375 47.171875 37.8125 47.578125 
Q 36.03125 48 33.890625 48 
Q 26.265625 48 22.1875 43.046875 
Q 18.109375 38.09375 18.109375 28.8125 
L 18.109375 0 
L 9.078125 0 
L 9.078125 54.6875 
L 18.109375 54.6875 
L 18.109375 46.1875 
Q 20.953125 51.171875 25.484375 53.578125 
Q 30.03125 56 36.53125 56 
Q 37.453125 56 38.578125 55.875 
Q 39.703125 55.765625 41.0625 55.515625 
z
" id="DejaVuSans-114"/>
      </defs>
      <use xlink:href="#DejaVuSans-70"/>
      <use x="48.394531" xlink:href="#DejaVuSans-97"/>
      <use x="109.673828" xlink:href="#DejaVuSans-108"/>
      <use x="137.457031" xlink:href="#DejaVuSans-115"/>
      <use x="189.556641" xlink:href="#DejaVuSans-101"/>
      <use x="251.080078" xlink:href="#DejaVuSans-32"/>
      <use x="282.867188" xlink:href="#DejaVuSans-112"/>
      <use x="346.34375" xlink:href="#DejaVuSans-111"/>
      <use x="407.525391" xlink:href="#DejaVuSans-115"/>
      <use x="459.625" xlink:href="#DejaVuSans-105"/>
      <use x="487.408203" xlink:href="#DejaVuSans-116"/>
      <use x="526.617188" xlink:href="#DejaVuSans-105"/>
      <use x="554.400391" xlink:href="#DejaVuSans-118"/>
      <use x="613.580078" xlink:href="#DejaVuSans-101"/>
      <use x="675.103516" xlink:href="#DejaVuSans-32"/>
      <use x="706.890625" xlink:href="#DejaVuSans-114"/>
      <use x="748.003906" xlink:href="#DejaVuSans-97"/>
      <use x="809.283203" xlink:href="#DejaVuSans-116"/>
      <use x="848.492188" xlink:href="#DejaVuSans-101"/>
     </g>
    </g>
   </g>
   <g id="matplotlib.axis_2">
    <g id="ytick_1">
     <g id="line2d_13">
      <path clip-path="url(#p1303fd299c)" d="M 86.4 643.090909 
L 1026 643.090909 
" style="fill:none;stroke:#cbcbcb;"/>
     </g>
     <g id="line2d_14"/>
     <g id="text_8">
      <!-- 0.0 -->
      <g transform="translate(60.635625 648.409815)scale(0.14 -0.14)">
       <use xlink:href="#DejaVuSans-48"/>
       <use x="63.623047" xlink:href="#DejaVuSans-46"/>
       <use x="95.410156" xlink:href="#DejaVuSans-48"/>
      </g>
     </g>
    </g>
    <g id="ytick_2">
     <g id="line2d_15">
      <path clip-path="url(#p1303fd299c)" d="M 86.4 537.054545 
L 1026 537.054545 
" style="fill:none;stroke:#cbcbcb;"/>
     </g>
     <g id="line2d_16"/>
     <g id="text_9">
      <!-- 0.2 -->
      <g transform="translate(60.635625 542.373452)scale(0.14 -0.14)">
       <use xlink:href="#DejaVuSans-48"/>
       <use x="63.623047" xlink:href="#DejaVuSans-46"/>
       <use x="95.410156" xlink:href="#DejaVuSans-50"/>
      </g>
     </g>
    </g>
    <g id="ytick_3">
     <g id="line2d_17">
      <path clip-path="url(#p1303fd299c)" d="M 86.4 431.018182 
L 1026 431.018182 
" style="fill:none;stroke:#cbcbcb;"/>
     </g>
     <g id="line2d_18"/>
     <g id="text_10">
      <!-- 0.4 -->
      <g transform="translate(60.635625 436.337088)scale(0.14 -0.14)">
       <use xlink:href="#DejaVuSans-48"/>
       <use x="63.623047" xlink:href="#DejaVuSans-46"/>
       <use x="95.410156" xlink:href="#DejaVuSans-52"/>
      </g>
     </g>
    </g>
    <g id="ytick_4">
     <g id="line2d_19">
      <path clip-path="url(#p1303fd299c)" d="M 86.4 324.981818 
L 1026 324.981818 
" style="fill:none;stroke:#cbcbcb;"/>
     </g>
     <g id="line2d_20"/>
     <g id="text_11">
      <!-- 0.6 -->
      <g transform="translate(60.635625 330.300724)scale(0.14 -0.14)">
       <use xlink:href="#DejaVuSans-48"/>
       <use x="63.623047" xlink:href="#DejaVuSans-46"/>
       <use x="95.410156" xlink:href="#DejaVuSans-54"/>
      </g>
     </g>
    </g>
    <g id="ytick_5">
     <g id="line2d_21">
      <path clip-path="url(#p1303fd299c)" d="M 86.4 218.945455 
L 1026 218.945455 
" style="fill:none;stroke:#cbcbcb;"/>
     </g>
     <g id="line2d_22"/>
     <g id="text_12">
      <!-- 0.8 -->
      <g transform="translate(60.635625 224.264361)scale(0.14 -0.14)">
       <use xlink:href="#DejaVuSans-48"/>
       <use x="63.623047" xlink:href="#DejaVuSans-46"/>
       <use x="95.410156" xlink:href="#DejaVuSans-56"/>
      </g>
     </g>
    </g>
    <g id="ytick_6">
     <g id="line2d_23">
      <path clip-path="url(#p1303fd299c)" d="M 86.4 112.909091 
L 1026 112.909091 
" style="fill:none;stroke:#cbcbcb;"/>
     </g>
     <g id="line2d_24"/>
     <g id="text_13">
      <!-- 1.0 -->
      <g transform="translate(60.635625 118.227997)scale(0.14 -0.14)">
       <use xlink:href="#DejaVuSans-49"/>
       <use x="63.623047" xlink:href="#DejaVuSans-46"/>
       <use x="95.410156" xlink:href="#DejaVuSans-48"/>
      </g>
     </g>
    </g>
    <g id="text_14">
     <!-- True positive rate -->
     <g transform="translate(53.14175 451.187625)rotate(-90)scale(0.168 -0.168)">
      <defs>
       <path d="M -0.296875 72.90625 
L 61.375 72.90625 
L 61.375 64.59375 
L 35.5 64.59375 
L 35.5 0 
L 25.59375 0 
L 25.59375 64.59375 
L -0.296875 64.59375 
z
" id="DejaVuSans-84"/>
       <path d="M 8.5 21.578125 
L 8.5 54.6875 
L 17.484375 54.6875 
L 17.484375 21.921875 
Q 17.484375 14.15625 20.5 10.265625 
Q 23.53125 6.390625 29.59375 6.390625 
Q 36.859375 6.390625 41.078125 11.03125 
Q 45.3125 15.671875 45.3125 23.6875 
L 45.3125 54.6875 
L 54.296875 54.6875 
L 54.296875 0 
L 45.3125 0 
L 45.3125 8.40625 
Q 42.046875 3.421875 37.71875 1 
Q 33.40625 -1.421875 27.6875 -1.421875 
Q 18.265625 -1.421875 13.375 4.4375 
Q 8.5 10.296875 8.5 21.578125 
z
M 31.109375 56 
z
" id="DejaVuSans-117"/>
      </defs>
      <use xlink:href="#DejaVuSans-84"/>
      <use x="46.333984" xlink:href="#DejaVuSans-114"/>
      <use x="87.447266" xlink:href="#DejaVuSans-117"/>
      <use x="150.826172" xlink:href="#DejaVuSans-101"/>
      <use x="212.349609" xlink:href="#DejaVuSans-32"/>
      <use x="244.136719" xlink:href="#DejaVuSans-112"/>
      <use x="307.613281" xlink:href="#DejaVuSans-111"/>
      <use x="368.794922" xlink:href="#DejaVuSans-115"/>
      <use x="420.894531" xlink:href="#DejaVuSans-105"/>
      <use x="448.677734" xlink:href="#DejaVuSans-116"/>
      <use x="487.886719" xlink:href="#DejaVuSans-105"/>
      <use x="515.669922" xlink:href="#DejaVuSans-118"/>
      <use x="574.849609" xlink:href="#DejaVuSans-101"/>
      <use x="636.373047" xlink:href="#DejaVuSans-32"/>
      <use x="668.160156" xlink:href="#DejaVuSans-114"/>
      <use x="709.273438" xlink:href="#DejaVuSans-97"/>
      <use x="770.552734" xlink:href="#DejaVuSans-116"/>
      <use x="809.761719" xlink:href="#DejaVuSans-101"/>
     </g>
    </g>
   </g>
   <g id="line2d_25">
    <path clip-path="url(#p1303fd299c)" d="M 129.109091 643.090909 
L 129.601131 607.5116 
L 130.831232 542.867503 
L 134.767553 492.7558 
L 138.949895 439.637395 
L 143.870297 398.044681 
L 147.806619 365.472074 
L 152.234981 334.903935 
L 160.107625 309.848084 
L 165.520067 284.291115 
L 170.686489 266.250902 
L 177.083012 250.215157 
L 183.971575 235.181646 
L 191.844219 222.152604 
L 202.177063 210.626912 
L 213.001948 197.096752 
L 229.731315 182.564358 
L 253.103226 162.01856 
L 292.220423 145.982815 
L 372.915019 130.448187 
L 520.035044 115.915793 
L 983.290909 112.909091 
" style="fill:none;stroke:#008fd5;stroke-width:2;"/>
   </g>
   <g id="line2d_26">
    <path clip-path="url(#p1303fd299c)" d="M 129.109091 643.090909 
L 129.109091 641.086441 
L 129.355111 641.086441 
L 129.355111 635.073037 
L 129.601131 635.073037 
L 129.601131 633.068568 
L 129.847151 633.068568 
L 129.847151 623.547345 
L 130.093171 623.547345 
L 130.093171 622.545111 
L 130.339191 622.545111 
L 130.339191 620.540643 
L 130.585212 620.540643 
L 130.585212 616.531706 
L 130.831232 616.531706 
L 130.831232 608.513834 
L 131.077252 608.513834 
L 131.077252 603.001547 
L 131.323272 603.001547 
L 131.323272 598.491493 
L 131.569292 598.491493 
L 131.569292 596.988142 
L 131.815312 596.988142 
L 131.815312 593.98144 
L 132.307352 593.98144 
L 132.307352 592.979206 
L 132.553372 592.979206 
L 132.553372 589.972504 
L 132.799393 589.972504 
L 132.799393 589.471387 
L 133.045413 589.471387 
L 133.045413 584.460217 
L 133.291433 584.460217 
L 133.291433 575.44011 
L 133.537453 575.44011 
L 133.537453 574.938993 
L 133.783473 574.938993 
L 133.783473 570.930057 
L 134.029493 570.930057 
L 134.029493 570.42894 
L 134.275513 570.42894 
L 134.275513 562.912184 
L 134.521533 562.912184 
L 134.521533 559.905482 
L 135.013574 559.905482 
L 135.013574 557.901014 
L 135.505614 557.901014 
L 135.505614 557.399897 
L 135.997654 557.399897 
L 135.997654 551.386493 
L 136.243674 551.386493 
L 136.243674 545.373088 
L 136.489694 545.373088 
L 136.489694 543.869737 
L 137.227755 543.869737 
L 137.227755 540.361918 
L 137.473775 540.361918 
L 137.473775 539.860801 
L 137.719795 539.860801 
L 137.719795 539.359684 
L 138.457855 539.359684 
L 138.457855 536.854099 
L 138.703875 536.854099 
L 138.703875 529.337343 
L 138.949895 529.337343 
L 138.949895 527.332875 
L 139.195915 527.332875 
L 139.195915 526.831758 
L 139.441935 526.831758 
L 139.441935 526.330641 
L 139.687956 526.330641 
L 139.687956 521.319471 
L 140.179996 521.319471 
L 140.179996 519.81612 
L 140.426016 519.81612 
L 140.426016 517.811651 
L 140.672036 517.811651 
L 140.672036 516.3083 
L 141.164076 516.3083 
L 141.164076 515.306066 
L 141.410096 515.306066 
L 141.410096 509.793779 
L 141.902137 509.793779 
L 141.902137 507.789311 
L 142.148157 507.789311 
L 142.148157 504.782609 
L 142.394177 504.782609 
L 142.394177 503.279258 
L 142.640197 503.279258 
L 142.640197 502.778141 
L 142.886217 502.778141 
L 142.886217 501.274789 
L 143.132237 501.274789 
L 143.132237 500.272555 
L 143.378257 500.272555 
L 143.378257 494.259151 
L 143.870297 494.259151 
L 143.870297 493.256917 
L 144.116318 493.256917 
L 144.116318 492.254683 
L 144.608358 492.254683 
L 144.608358 485.740162 
L 144.854378 485.740162 
L 144.854378 478.724523 
L 145.100398 478.724523 
L 145.100398 475.717821 
L 145.346418 475.717821 
L 145.346418 474.715587 
L 146.330499 474.715587 
L 146.330499 472.210002 
L 146.822539 472.210002 
L 146.822539 471.708885 
L 147.560599 471.708885 
L 147.560599 469.704417 
L 148.052639 469.704417 
L 148.052639 468.702183 
L 148.298659 468.702183 
L 148.298659 468.201065 
L 148.54468 468.201065 
L 148.54468 466.196597 
L 148.7907 466.196597 
L 148.7907 465.69548 
L 149.03672 465.69548 
L 149.03672 460.68431 
L 149.28274 460.68431 
L 149.28274 459.682076 
L 149.52876 459.682076 
L 149.52876 458.679842 
L 149.77478 458.679842 
L 149.77478 457.176491 
L 150.0208 457.176491 
L 150.0208 456.174257 
L 150.51284 456.174257 
L 150.51284 455.172023 
L 150.75886 455.172023 
L 150.75886 446.653033 
L 151.004881 446.653033 
L 151.004881 446.151916 
L 151.250901 446.151916 
L 151.250901 444.648565 
L 151.742941 444.648565 
L 151.742941 444.147448 
L 151.988961 444.147448 
L 151.988961 443.646331 
L 152.727021 443.646331 
L 152.727021 437.13181 
L 152.973041 437.13181 
L 152.973041 436.630693 
L 153.465082 436.630693 
L 153.465082 436.129576 
L 153.711102 436.129576 
L 153.711102 434.626224 
L 153.957122 434.626224 
L 153.957122 433.62399 
L 154.203142 433.62399 
L 154.203142 432.621756 
L 154.449162 432.621756 
L 154.449162 431.619522 
L 154.695182 431.619522 
L 154.695182 430.116171 
L 154.941202 430.116171 
L 154.941202 428.61282 
L 155.187222 428.61282 
L 155.187222 424.102767 
L 155.679263 424.102767 
L 155.679263 420.093831 
L 155.925283 420.093831 
L 155.925283 419.091596 
L 156.171303 419.091596 
L 156.171303 416.586011 
L 156.417323 416.586011 
L 156.417323 414.581543 
L 156.663343 414.581543 
L 156.663343 414.080426 
L 156.909363 414.080426 
L 156.909363 412.075958 
L 157.155383 412.075958 
L 157.155383 410.07149 
L 157.647424 410.07149 
L 157.647424 408.067022 
L 158.139464 408.067022 
L 158.139464 407.064788 
L 158.385484 407.064788 
L 158.385484 403.556969 
L 158.877524 403.556969 
L 158.877524 402.053617 
L 159.615584 402.053617 
L 159.615584 399.548032 
L 159.861605 399.548032 
L 159.861605 399.046915 
L 160.599665 399.046915 
L 160.599665 394.536862 
L 161.091705 394.536862 
L 161.091705 393.033511 
L 161.337725 393.033511 
L 161.337725 392.031277 
L 161.583745 392.031277 
L 161.583745 391.53016 
L 161.829765 391.53016 
L 161.829765 389.525692 
L 162.075786 389.525692 
L 162.075786 388.523458 
L 162.321806 388.523458 
L 162.321806 386.51899 
L 162.813846 386.51899 
L 162.813846 385.015638 
L 163.059866 385.015638 
L 163.059866 384.013404 
L 163.305886 384.013404 
L 163.305886 380.004468 
L 164.289966 380.004468 
L 164.289966 379.002234 
L 165.028027 379.002234 
L 165.028027 377.498883 
L 165.274047 377.498883 
L 165.274047 376.496649 
L 165.520067 376.496649 
L 165.520067 375.995532 
L 166.012107 375.995532 
L 166.012107 374.993298 
L 166.258127 374.993298 
L 166.258127 374.492181 
L 166.504147 374.492181 
L 166.504147 373.991064 
L 166.750168 373.991064 
L 166.750168 367.977659 
L 166.996188 367.977659 
L 166.996188 367.476542 
L 167.242208 367.476542 
L 167.242208 366.474308 
L 167.488228 366.474308 
L 167.488228 365.472074 
L 167.734248 365.472074 
L 167.734248 363.467606 
L 168.226288 363.467606 
L 168.226288 360.962021 
L 168.472308 360.962021 
L 168.472308 359.45867 
L 168.718328 359.45867 
L 168.718328 356.953085 
L 168.964349 356.953085 
L 168.964349 354.948617 
L 169.210369 354.948617 
L 169.210369 352.443031 
L 169.456389 352.443031 
L 169.456389 351.941914 
L 170.194449 351.941914 
L 170.194449 351.440797 
L 170.440469 351.440797 
L 170.440469 350.93968 
L 170.686489 350.93968 
L 170.686489 346.429627 
L 170.932509 346.429627 
L 170.932509 345.427393 
L 171.17853 345.427393 
L 171.17853 342.420691 
L 171.42455 342.420691 
L 171.42455 341.418457 
L 172.40863 341.418457 
L 172.40863 340.416223 
L 172.90067 340.416223 
L 172.90067 339.915106 
L 173.14669 339.915106 
L 173.14669 338.411755 
L 173.638731 338.411755 
L 173.638731 335.906169 
L 174.622811 335.906169 
L 174.622811 335.405052 
L 174.868831 335.405052 
L 174.868831 334.903935 
L 175.114851 334.903935 
L 175.114851 334.402818 
L 175.360871 334.402818 
L 175.360871 331.396116 
L 176.590972 331.396116 
L 176.590972 330.894999 
L 176.836992 330.894999 
L 176.836992 330.393882 
L 177.083012 330.393882 
L 177.083012 328.389414 
L 177.575052 328.389414 
L 177.575052 326.384946 
L 178.067093 326.384946 
L 178.067093 325.883829 
L 178.313113 325.883829 
L 178.313113 324.380478 
L 178.559133 324.380478 
L 178.559133 323.879361 
L 178.805153 323.879361 
L 178.805153 319.870424 
L 179.051173 319.870424 
L 179.051173 318.86819 
L 179.543213 318.86819 
L 179.543213 315.861488 
L 179.789233 315.861488 
L 179.789233 313.85702 
L 180.281274 313.85702 
L 180.281274 313.355903 
L 180.773314 313.355903 
L 180.773314 311.351435 
L 181.265354 311.351435 
L 181.265354 310.850318 
L 181.511374 310.850318 
L 181.511374 310.349201 
L 181.757394 310.349201 
L 181.757394 308.344733 
L 182.003414 308.344733 
L 182.003414 307.843616 
L 182.249434 307.843616 
L 182.249434 307.342499 
L 182.495455 307.342499 
L 182.495455 305.338031 
L 182.741475 305.338031 
L 182.741475 304.836914 
L 182.987495 304.836914 
L 182.987495 304.335797 
L 183.479535 304.335797 
L 183.479535 303.834679 
L 183.971575 303.834679 
L 183.971575 302.832445 
L 185.201676 302.832445 
L 185.201676 302.331328 
L 185.693716 302.331328 
L 185.693716 300.32686 
L 185.939736 300.32686 
L 185.939736 299.825743 
L 186.185756 299.825743 
L 186.185756 299.324626 
L 186.431776 299.324626 
L 186.431776 297.320158 
L 186.677796 297.320158 
L 186.677796 295.816807 
L 186.923817 295.816807 
L 186.923817 295.31569 
L 187.169837 295.31569 
L 187.169837 294.313456 
L 187.661877 294.313456 
L 187.661877 292.810105 
L 187.907897 292.810105 
L 187.907897 292.308988 
L 188.153917 292.308988 
L 188.153917 291.306754 
L 188.399937 291.306754 
L 188.399937 290.805637 
L 189.630038 290.805637 
L 189.630038 290.30452 
L 189.876058 290.30452 
L 189.876058 288.801169 
L 190.614118 288.801169 
L 190.614118 288.300052 
L 192.336259 288.300052 
L 192.336259 287.798935 
L 193.074319 287.798935 
L 193.074319 285.794466 
L 193.320339 285.794466 
L 193.320339 285.293349 
L 193.81238 285.293349 
L 193.81238 284.792232 
L 194.0584 284.792232 
L 194.0584 283.288881 
L 194.30442 283.288881 
L 194.30442 282.787764 
L 195.04248 282.787764 
L 195.04248 280.282179 
L 195.53452 280.282179 
L 195.53452 278.778828 
L 195.78054 278.778828 
L 195.78054 277.776594 
L 196.764621 277.776594 
L 196.764621 276.77436 
L 197.748701 276.77436 
L 197.748701 276.273243 
L 198.978802 276.273243 
L 198.978802 275.772126 
L 199.224822 275.772126 
L 199.224822 273.266541 
L 199.470842 273.266541 
L 199.470842 272.765424 
L 199.962882 272.765424 
L 199.962882 271.76319 
L 200.454922 271.76319 
L 200.454922 271.262073 
L 201.192983 271.262073 
L 201.192983 269.257604 
L 201.685023 269.257604 
L 201.685023 268.756487 
L 201.931043 268.756487 
L 201.931043 268.25537 
L 202.177063 268.25537 
L 202.177063 267.754253 
L 202.423083 267.754253 
L 202.423083 267.253136 
L 202.669103 267.253136 
L 202.669103 266.752019 
L 202.915124 266.752019 
L 202.915124 266.250902 
L 203.161144 266.250902 
L 203.161144 264.747551 
L 203.899204 264.747551 
L 203.899204 263.745317 
L 204.145224 263.745317 
L 204.145224 261.740849 
L 204.391244 261.740849 
L 204.391244 260.738615 
L 204.883284 260.738615 
L 204.883284 259.736381 
L 205.129305 259.736381 
L 205.129305 259.235264 
L 205.375325 259.235264 
L 205.375325 258.734147 
L 205.867365 258.734147 
L 205.867365 258.23303 
L 206.113385 258.23303 
L 206.113385 256.228562 
L 206.851445 256.228562 
L 206.851445 255.727445 
L 208.081546 255.727445 
L 208.081546 255.226328 
L 208.573586 255.226328 
L 208.573586 254.725211 
L 209.557667 254.725211 
L 209.557667 253.722976 
L 209.803687 253.722976 
L 209.803687 253.221859 
L 210.541747 253.221859 
L 210.541747 251.718508 
L 211.033787 251.718508 
L 211.033787 251.217391 
L 211.279807 251.217391 
L 211.279807 250.716274 
L 211.525827 250.716274 
L 211.525827 248.711806 
L 212.017868 248.711806 
L 212.017868 248.210689 
L 212.263888 248.210689 
L 212.263888 247.208455 
L 212.509908 247.208455 
L 212.509908 246.206221 
L 213.001948 246.206221 
L 213.001948 245.203987 
L 213.247968 245.203987 
L 213.247968 244.201753 
L 213.740008 244.201753 
L 213.740008 242.197285 
L 214.478069 242.197285 
L 214.478069 241.696168 
L 215.216129 241.696168 
L 215.216129 241.195051 
L 215.462149 241.195051 
L 215.462149 240.693934 
L 215.954189 240.693934 
L 215.954189 240.192817 
L 216.200209 240.192817 
L 216.200209 239.190583 
L 216.93827 239.190583 
L 216.93827 238.188349 
L 217.18429 238.188349 
L 217.18429 237.186114 
L 217.43031 237.186114 
L 217.43031 236.684997 
L 218.660411 236.684997 
L 218.660411 236.18388 
L 218.906431 236.18388 
L 218.906431 235.181646 
L 219.152451 235.181646 
L 219.152451 234.179412 
L 219.890511 234.179412 
L 219.890511 233.678295 
L 220.874592 233.678295 
L 220.874592 232.174944 
L 221.366632 232.174944 
L 221.366632 231.673827 
L 222.350712 231.673827 
L 222.350712 231.17271 
L 222.842752 231.17271 
L 222.842752 230.170476 
L 223.088773 230.170476 
L 223.088773 229.669359 
L 224.318873 229.669359 
L 224.318873 228.667125 
L 224.810913 228.667125 
L 224.810913 228.166008 
L 225.056933 228.166008 
L 225.056933 227.664891 
L 226.041014 227.664891 
L 226.041014 226.662657 
L 227.763155 226.662657 
L 227.763155 226.16154 
L 228.009175 226.16154 
L 228.009175 225.660423 
L 229.977336 225.660423 
L 229.977336 225.159306 
L 231.207436 225.159306 
L 231.207436 224.157072 
L 231.453456 224.157072 
L 231.453456 222.653721 
L 231.699476 222.653721 
L 231.699476 221.150369 
L 234.159677 221.150369 
L 234.159677 219.145901 
L 234.651718 219.145901 
L 234.651718 217.141433 
L 235.389778 217.141433 
L 235.389778 216.139199 
L 235.635798 216.139199 
L 235.635798 215.638082 
L 235.881818 215.638082 
L 235.881818 214.635848 
L 236.127838 214.635848 
L 236.127838 214.134731 
L 236.373858 214.134731 
L 236.373858 213.633614 
L 237.603959 213.633614 
L 237.603959 213.132497 
L 238.588039 213.132497 
L 238.588039 212.63138 
L 238.834059 212.63138 
L 238.834059 211.629146 
L 239.3261 211.629146 
L 239.3261 211.128029 
L 240.06416 211.128029 
L 240.06416 210.626912 
L 240.31018 210.626912 
L 240.31018 210.125795 
L 241.786301 210.125795 
L 241.786301 209.624678 
L 242.032321 209.624678 
L 242.032321 209.123561 
L 242.770381 209.123561 
L 242.770381 208.622444 
L 244.000482 208.622444 
L 244.000482 208.121327 
L 244.492522 208.121327 
L 244.492522 207.62021 
L 245.230582 207.62021 
L 245.230582 206.116859 
L 246.214663 206.116859 
L 246.214663 205.114625 
L 246.460683 205.114625 
L 246.460683 204.613507 
L 246.706703 204.613507 
L 246.706703 204.11239 
L 247.936804 204.11239 
L 247.936804 203.611273 
L 248.920884 203.611273 
L 248.920884 202.609039 
L 249.412924 202.609039 
L 249.412924 202.107922 
L 251.135065 202.107922 
L 251.135065 201.105688 
L 251.873125 201.105688 
L 251.873125 199.602337 
L 254.825367 199.602337 
L 254.825367 199.10122 
L 256.793527 199.10122 
L 256.793527 198.600103 
L 257.039548 198.600103 
L 257.039548 197.597869 
L 258.515668 197.597869 
L 258.515668 197.096752 
L 260.483829 197.096752 
L 260.483829 196.595635 
L 260.975869 196.595635 
L 260.975869 196.094518 
L 261.71393 196.094518 
L 261.71393 195.593401 
L 264.420151 195.593401 
L 264.420151 195.092284 
L 265.896271 195.092284 
L 265.896271 194.591167 
L 266.388312 194.591167 
L 266.388312 193.588933 
L 268.110452 193.588933 
L 268.110452 192.085582 
L 268.848513 192.085582 
L 268.848513 191.584465 
L 269.094533 191.584465 
L 269.094533 190.081114 
L 269.586573 190.081114 
L 269.586573 189.579997 
L 269.832593 189.579997 
L 269.832593 189.07888 
L 270.816674 189.07888 
L 270.816674 188.577763 
L 271.062694 188.577763 
L 271.062694 187.575528 
L 271.800754 187.575528 
L 271.800754 187.074411 
L 273.522895 187.074411 
L 273.522895 186.573294 
L 274.506975 186.573294 
L 274.506975 186.072177 
L 276.967176 186.072177 
L 276.967176 185.57106 
L 277.213196 185.57106 
L 277.213196 185.069943 
L 278.443297 185.069943 
L 278.443297 184.568826 
L 279.181357 184.568826 
L 279.181357 184.067709 
L 282.871659 184.067709 
L 282.871659 183.566592 
L 283.117679 183.566592 
L 283.117679 183.065475 
L 284.34778 183.065475 
L 284.34778 182.564358 
L 286.06992 182.564358 
L 286.06992 182.063241 
L 286.315941 182.063241 
L 286.315941 181.562124 
L 288.530121 181.562124 
L 288.530121 181.061007 
L 290.006242 181.061007 
L 290.006242 180.55989 
L 290.252262 180.55989 
L 290.252262 180.058773 
L 291.482363 180.058773 
L 291.482363 179.557656 
L 291.728383 179.557656 
L 291.728383 179.056539 
L 292.712463 179.056539 
L 292.712463 178.054305 
L 293.450524 178.054305 
L 293.450524 177.052071 
L 296.402765 177.052071 
L 296.402765 176.550954 
L 297.878886 176.550954 
L 297.878886 176.049837 
L 301.323167 176.049837 
L 301.323167 175.54872 
L 301.569187 175.54872 
L 301.569187 174.546486 
L 304.521429 174.546486 
L 304.521429 174.045369 
L 305.259489 174.045369 
L 305.259489 173.544252 
L 306.243569 173.544252 
L 306.243569 173.043135 
L 310.425911 173.043135 
L 310.425911 172.542018 
L 314.116213 172.542018 
L 314.116213 172.0409 
L 314.362233 172.0409 
L 314.362233 171.539783 
L 316.822434 171.539783 
L 316.822434 171.038666 
L 319.282635 171.038666 
L 319.282635 170.537549 
L 322.480897 170.537549 
L 322.480897 170.036432 
L 323.957017 170.036432 
L 323.957017 169.535315 
L 324.695078 169.535315 
L 324.695078 169.034198 
L 328.385379 169.034198 
L 328.385379 168.031964 
L 330.84558 168.031964 
L 330.84558 167.530847 
L 331.33762 167.530847 
L 331.33762 167.02973 
L 331.583641 167.02973 
L 331.583641 166.528613 
L 332.813741 166.528613 
L 332.813741 166.027496 
L 334.043842 166.027496 
L 334.043842 165.025262 
L 339.948324 165.025262 
L 339.948324 164.524145 
L 343.392606 164.524145 
L 343.392606 164.023028 
L 346.590867 164.023028 
L 346.590867 163.521911 
L 355.201571 163.521911 
L 355.201571 162.519677 
L 357.415752 162.519677 
L 357.415752 162.01856 
L 358.645853 162.01856 
L 358.645853 161.016326 
L 359.137893 161.016326 
L 359.137893 160.515209 
L 360.121973 160.515209 
L 360.121973 160.014092 
L 362.582174 160.014092 
L 362.582174 159.512975 
L 364.304315 159.512975 
L 364.304315 159.011858 
L 365.288395 159.011858 
L 365.288395 158.510741 
L 370.946858 158.510741 
L 370.946858 158.009624 
L 373.653079 158.009624 
L 373.653079 157.508507 
L 378.081441 157.508507 
L 378.081441 157.00739 
L 379.557562 157.00739 
L 379.557562 156.506273 
L 380.295622 156.506273 
L 380.295622 156.005156 
L 380.541642 156.005156 
L 380.541642 155.504038 
L 386.938165 155.504038 
L 386.938165 155.002921 
L 391.366527 155.002921 
L 391.366527 154.501804 
L 393.088668 154.501804 
L 393.088668 154.000687 
L 397.02499 154.000687 
L 397.02499 153.49957 
L 399.485191 153.49957 
L 399.485191 152.998453 
L 401.453351 152.998453 
L 401.453351 152.497336 
L 403.667532 152.497336 
L 403.667532 151.495102 
L 415.722518 151.495102 
L 415.722518 150.993985 
L 416.952618 150.993985 
L 416.952618 149.490634 
L 420.15088 149.490634 
L 420.15088 148.989517 
L 422.857101 148.989517 
L 422.857101 148.4884 
L 427.531483 148.4884 
L 427.531483 147.987283 
L 430.975765 147.987283 
L 430.975765 147.486166 
L 433.189946 147.486166 
L 433.189946 146.985049 
L 437.372287 146.985049 
L 437.372287 146.483932 
L 440.570549 146.483932 
L 440.570549 145.982815 
L 445.244931 145.982815 
L 445.244931 145.481698 
L 448.197172 145.481698 
L 448.197172 144.980581 
L 450.165333 144.980581 
L 450.165333 144.479464 
L 452.625534 144.479464 
L 452.625534 143.978347 
L 454.101655 143.978347 
L 454.101655 143.47723 
L 455.331755 143.47723 
L 455.331755 142.976113 
L 459.268077 142.976113 
L 459.268077 142.474996 
L 461.236238 142.474996 
L 461.236238 141.973879 
L 466.15664 141.973879 
L 466.15664 141.472762 
L 469.354902 141.472762 
L 469.354902 140.971645 
L 479.441726 140.971645 
L 479.441726 140.470528 
L 490.266611 140.470528 
L 490.266611 139.969411 
L 490.758651 139.969411 
L 490.758651 139.468294 
L 493.218852 139.468294 
L 493.218852 138.967176 
L 494.694973 138.967176 
L 494.694973 138.466059 
L 501.583536 138.466059 
L 501.583536 137.964942 
L 502.567616 137.964942 
L 502.567616 137.463825 
L 504.781797 137.463825 
L 504.781797 136.962708 
L 512.162401 136.962708 
L 512.162401 136.461591 
L 517.574843 136.461591 
L 517.574843 135.459357 
L 520.527084 135.459357 
L 520.527084 134.95824 
L 522.987285 134.95824 
L 522.987285 133.956006 
L 523.233305 133.956006 
L 523.233305 133.454889 
L 524.955446 133.454889 
L 524.955446 132.953772 
L 525.447486 132.953772 
L 525.447486 131.951538 
L 527.907687 131.951538 
L 527.907687 131.450421 
L 528.645748 131.450421 
L 528.645748 130.949304 
L 531.844009 130.949304 
L 531.844009 130.448187 
L 538.978592 130.448187 
L 538.978592 129.94707 
L 540.946753 129.94707 
L 540.946753 128.944836 
L 541.192773 128.944836 
L 541.192773 128.443719 
L 546.851236 128.443719 
L 546.851236 127.942602 
L 561.612442 127.942602 
L 561.612442 127.441485 
L 563.088563 127.441485 
L 563.088563 126.940368 
L 567.270905 126.940368 
L 567.270905 126.439251 
L 574.405488 126.439251 
L 574.405488 125.938134 
L 575.881609 125.938134 
L 575.881609 125.437017 
L 589.166695 125.437017 
L 589.166695 124.9359 
L 592.364956 124.9359 
L 592.364956 124.434783 
L 605.896062 124.434783 
L 605.896062 123.933666 
L 612.046565 123.933666 
L 612.046565 123.432549 
L 628.283892 123.432549 
L 628.283892 122.931432 
L 637.140616 122.931432 
L 637.140616 122.430314 
L 638.862757 122.430314 
L 638.862757 121.929197 
L 653.377943 121.929197 
L 653.377943 121.42808 
L 659.774466 121.42808 
L 659.774466 120.926963 
L 681.424235 120.926963 
L 681.424235 120.425846 
L 692.74116 120.425846 
L 692.74116 119.924729 
L 736.28672 119.924729 
L 736.28672 119.423612 
L 742.191202 119.423612 
L 742.191202 118.922495 
L 748.587725 118.922495 
L 748.587725 118.421378 
L 757.936489 118.421378 
L 757.936489 117.920261 
L 797.545727 117.920261 
L 797.545727 117.419144 
L 809.600712 117.419144 
L 809.600712 116.918027 
L 809.846732 116.918027 
L 809.846732 116.41691 
L 815.013155 116.41691 
L 815.013155 115.915793 
L 843.797507 115.915793 
L 843.797507 115.414676 
L 865.447277 115.414676 
L 865.447277 114.913559 
L 874.550021 114.913559 
L 874.550021 114.412442 
L 875.042061 114.412442 
L 875.042061 113.911325 
L 881.438584 113.911325 
L 881.438584 113.410208 
L 981.814788 113.410208 
L 981.814788 112.909091 
L 983.290909 112.909091 
L 983.290909 112.909091 
" style="fill:none;stroke:#fc4f30;stroke-width:2;"/>
   </g>
   <g id="line2d_27">
    <path clip-path="url(#p1303fd299c)" d="M 129.109091 643.090909 
L 129.109091 638.580856 
L 129.355111 638.580856 
L 129.355111 635.574154 
L 129.601131 635.073037 
L 129.601131 630.562983 
L 129.847151 630.061866 
L 129.847151 627.055164 
L 130.093171 627.055164 
L 130.093171 619.538409 
L 130.339191 619.538409 
L 130.339191 612.021653 
L 130.585212 611.520536 
L 130.585212 608.012717 
L 130.831232 607.5116 
L 130.831232 607.010483 
L 131.077252 606.509366 
L 131.077252 601.498196 
L 131.323272 601.498196 
L 131.569292 600.495962 
L 131.815312 600.495962 
L 131.815312 598.99261 
L 132.061332 598.491493 
L 132.061332 594.983674 
L 132.307352 593.98144 
L 132.307352 590.974738 
L 132.553372 589.972504 
L 132.553372 576.943461 
L 132.799393 576.442344 
L 132.799393 574.437876 
L 133.783473 574.437876 
L 133.783473 569.426706 
L 134.029493 569.426706 
L 134.029493 566.92112 
L 134.275513 564.916652 
L 134.275513 558.402131 
L 134.521533 556.89878 
L 134.521533 550.885375 
L 134.767553 548.880907 
L 134.767553 544.370854 
L 135.013574 543.869737 
L 135.013574 539.359684 
L 135.259594 537.856333 
L 135.259594 531.842928 
L 135.505614 531.842928 
L 135.505614 530.840694 
L 135.997654 530.840694 
L 136.489694 530.339577 
L 136.489694 526.330641 
L 136.735714 524.82729 
L 136.735714 521.820588 
L 136.981734 520.317237 
L 136.981734 506.28596 
L 137.227755 504.782609 
L 137.227755 488.245747 
L 137.719795 486.241279 
L 137.719795 481.731225 
L 138.211835 477.221172 
L 138.211835 475.717821 
L 138.457855 473.713353 
L 138.457855 471.708885 
L 138.703875 469.2033 
L 139.195915 468.201065 
L 139.441935 466.697714 
L 139.441935 464.693246 
L 139.687956 462.688778 
L 139.687956 461.185427 
L 139.933976 460.183193 
L 140.426016 459.682076 
L 140.672036 456.675374 
L 141.164076 454.670906 
L 141.656116 454.169789 
L 141.656116 451.664203 
L 141.902137 450.160852 
L 141.902137 449.158618 
L 142.148157 448.657501 
L 142.640197 448.657501 
L 142.640197 443.145214 
L 142.886217 442.14298 
L 142.886217 435.628458 
L 143.378257 434.626224 
L 143.624277 433.62399 
L 143.870297 431.118405 
L 143.870297 428.111703 
L 144.116318 427.109469 
L 144.116318 423.60165 
L 144.362338 422.599416 
L 144.854378 422.098299 
L 144.854378 418.089362 
L 145.346418 417.588245 
L 145.346418 417.087128 
L 145.592438 415.08266 
L 145.592438 413.579309 
L 145.838458 413.579309 
L 146.576519 412.577075 
L 146.576519 410.07149 
L 147.314579 408.568139 
L 147.560599 407.565905 
L 147.560599 406.563671 
L 147.806619 405.561437 
L 147.806619 403.556969 
L 148.298659 400.049149 
L 148.54468 399.548032 
L 148.7907 398.545798 
L 148.7907 392.532394 
L 149.03672 391.53016 
L 149.77478 386.51899 
L 149.77478 384.514521 
L 150.0208 383.512287 
L 150.0208 381.507819 
L 150.75886 377.498883 
L 151.004881 376.997766 
L 151.496921 374.993298 
L 152.234981 374.492181 
L 152.481001 373.489947 
L 152.727021 372.98883 
L 153.219062 370.984362 
L 153.219062 368.478776 
L 153.465082 367.476542 
L 154.449162 364.970957 
L 154.449162 362.465372 
L 154.941202 361.964255 
L 155.187222 360.460904 
L 155.187222 356.953085 
L 155.679263 352.443031 
L 156.171303 350.438563 
L 156.417323 350.438563 
L 158.385484 344.425159 
L 158.385484 339.915106 
L 159.123544 338.912872 
L 159.861605 334.903935 
L 160.353645 332.899467 
L 161.091705 332.899467 
L 161.337725 330.894999 
L 161.337725 329.391648 
L 161.583745 328.389414 
L 162.075786 328.389414 
L 162.321806 325.382712 
L 162.321806 324.380478 
L 162.567826 324.380478 
L 163.059866 323.378244 
L 163.551906 319.870424 
L 163.797926 319.369307 
L 164.043946 319.369307 
L 164.289966 317.865956 
L 165.028027 315.861488 
L 165.028027 315.360371 
L 165.274047 313.85702 
L 165.274047 311.852552 
L 166.012107 311.351435 
L 166.012107 309.346967 
L 166.750168 307.843616 
L 167.242208 307.342499 
L 167.488228 307.342499 
L 167.734248 306.841382 
L 167.980268 305.839148 
L 168.472308 305.338031 
L 168.718328 304.335797 
L 169.210369 302.832445 
L 169.210369 302.331328 
L 169.456389 300.32686 
L 170.440469 297.320158 
L 171.17853 297.320158 
L 171.67057 296.819041 
L 172.40863 294.814573 
L 173.14669 293.311222 
L 173.884751 293.311222 
L 174.130771 292.308988 
L 174.868831 290.30452 
L 175.114851 286.7967 
L 175.606891 286.7967 
L 176.098932 286.295583 
L 176.590972 286.295583 
L 177.329032 285.794466 
L 177.329032 285.293349 
L 177.575052 284.792232 
L 177.575052 283.288881 
L 178.313113 282.286647 
L 179.051173 280.282179 
L 179.297193 279.279945 
L 180.035253 278.277711 
L 180.035253 276.77436 
L 180.281274 275.772126 
L 180.527294 275.772126 
L 180.773314 275.271009 
L 181.265354 273.266541 
L 182.249434 272.765424 
L 182.495455 270.259838 
L 183.233515 270.259838 
L 183.725555 269.758721 
L 184.955656 268.25537 
L 184.955656 267.253136 
L 185.939736 266.250902 
L 186.677796 265.248668 
L 187.169837 264.246434 
L 188.153917 262.743083 
L 188.645957 262.743083 
L 189.384018 262.241966 
L 190.368098 260.237498 
L 193.074319 260.237498 
L 193.074319 257.731913 
L 194.30442 257.731913 
L 195.04248 255.727445 
L 196.026561 254.725211 
L 197.256661 252.219625 
L 198.240742 250.716274 
L 198.732782 248.711806 
L 199.716862 246.707338 
L 200.454922 242.698402 
L 202.915124 240.693934 
L 203.407164 238.689466 
L 204.391244 238.188349 
L 204.883284 238.188349 
L 205.375325 237.687231 
L 206.359405 237.186114 
L 207.589506 236.684997 
L 208.819606 236.684997 
L 209.311646 236.18388 
L 210.049707 234.680529 
L 210.787767 233.678295 
L 211.525827 233.678295 
L 213.986028 231.17271 
L 214.232049 231.17271 
L 215.708169 229.669359 
L 215.954189 229.168242 
L 216.44623 227.664891 
L 216.93827 225.159306 
L 217.92235 224.157072 
L 219.152451 222.653721 
L 220.382551 222.653721 
L 220.628571 221.651487 
L 221.366632 221.651487 
L 222.104692 221.150369 
L 222.596732 220.649252 
L 223.826833 220.649252 
L 225.302953 219.145901 
L 226.287034 217.141433 
L 227.271114 215.638082 
L 228.255195 215.638082 
L 229.239275 214.134731 
L 230.715396 213.132497 
L 231.945496 212.63138 
L 232.929577 207.62021 
L 234.651718 207.119093 
L 235.881818 207.119093 
L 236.373858 205.615742 
L 236.865899 205.615742 
L 237.603959 204.613507 
L 238.588039 204.11239 
L 239.3261 202.609039 
L 241.294261 202.609039 
L 241.540281 201.105688 
L 242.770381 199.10122 
L 245.230582 199.10122 
L 246.214663 198.098986 
L 246.706703 198.098986 
L 247.936804 197.597869 
L 248.428844 197.096752 
L 249.412924 196.595635 
L 251.627105 196.595635 
L 253.841286 195.593401 
L 255.071387 194.591167 
L 257.285568 194.591167 
L 258.515668 193.087816 
L 260.483829 193.087816 
L 260.975869 192.586699 
L 262.20597 192.586699 
L 262.69801 192.085582 
L 264.420151 190.582231 
L 265.896271 190.582231 
L 267.372392 189.579997 
L 268.848513 189.07888 
L 270.078613 188.076645 
L 271.554734 188.076645 
L 274.260955 187.074411 
L 276.967176 185.069943 
L 278.689317 184.067709 
L 281.395538 183.566592 
L 282.871659 181.061007 
L 284.34778 181.061007 
L 284.83982 180.55989 
L 287.054001 180.058773 
L 288.776142 179.056539 
L 290.006242 178.054305 
L 291.482363 177.052071 
L 297.632866 177.052071 
L 301.323167 176.049837 
L 305.751529 176.049837 
L 307.71969 174.045369 
L 312.640092 174.045369 
L 314.608253 173.544252 
L 318.298555 173.544252 
L 320.266716 173.043135 
L 322.726917 170.537549 
L 325.433138 170.036432 
L 328.139359 168.533081 
L 329.8615 167.02973 
L 332.567721 165.025262 
L 336.750063 165.025262 
L 339.210264 164.023028 
L 340.932405 164.023028 
L 344.868726 163.521911 
L 353.47943 163.521911 
L 356.677692 162.519677 
L 360.614013 162.519677 
L 364.058295 162.01856 
L 367.010536 161.016326 
L 372.176959 161.016326 
L 375.1292 160.014092 
L 377.097361 160.014092 
L 379.065522 158.510741 
L 382.509803 158.009624 
L 386.200105 158.009624 
L 389.398366 157.508507 
L 392.350607 157.508507 
L 394.564788 156.506273 
L 396.778969 156.005156 
L 400.469271 156.005156 
L 402.929472 155.504038 
L 408.341915 154.000687 
L 411.048136 154.000687 
L 414.246397 153.49957 
L 415.722518 153.49957 
L 418.674759 152.998453 
L 420.88894 151.996219 
L 422.365061 151.996219 
L 425.809342 150.993985 
L 427.039443 150.492868 
L 429.499644 149.991751 
L 430.729744 149.490634 
L 433.681986 149.490634 
L 434.912086 148.989517 
L 437.126267 148.4884 
L 438.848408 148.4884 
L 441.062589 146.985049 
L 444.26085 146.985049 
L 445.982991 145.481698 
L 448.689212 144.980581 
L 449.919313 143.978347 
L 452.133494 143.978347 
L 455.331755 143.47723 
L 461.236238 143.47723 
L 463.450419 142.976113 
L 470.338982 141.973879 
L 472.061123 141.472762 
L 473.045203 141.472762 
L 476.243465 140.971645 
L 479.195706 140.971645 
L 480.179786 140.470528 
L 481.655907 140.470528 
L 484.116108 139.969411 
L 486.084269 139.969411 
L 488.05243 138.967176 
L 491.742731 138.967176 
L 494.448953 138.466059 
L 509.210159 138.466059 
L 513.638521 137.463825 
L 517.082803 135.960474 
L 520.035044 134.95824 
L 522.249225 134.457123 
L 525.447486 133.956006 
L 528.891768 133.956006 
L 535.288291 132.953772 
L 540.208693 132.953772 
L 546.851236 131.951538 
L 550.295517 130.949304 
L 551.771638 129.94707 
L 559.152241 128.944836 
L 568.254985 128.944836 
L 570.715186 127.942602 
L 574.405488 127.441485 
L 577.111709 126.940368 
L 582.770172 126.439251 
L 585.722413 125.938134 
L 601.4677 125.938134 
L 604.419941 125.437017 
L 627.053791 125.437017 
L 629.760013 124.9359 
L 634.434395 124.9359 
L 640.092857 124.434783 
L 651.409782 124.434783 
L 657.806305 122.430314 
L 669.36925 122.430314 
L 675.027713 121.929197 
L 680.440155 121.929197 
L 684.868517 121.42808 
L 689.542899 121.42808 
L 693.479221 120.926963 
L 703.074005 120.926963 
L 707.994407 120.425846 
L 711.930729 118.922495 
L 718.819292 118.922495 
L 722.509594 118.421378 
L 727.429996 118.421378 
L 733.580499 117.920261 
L 759.16659 117.920261 
L 764.333012 117.419144 
L 804.43429 117.419144 
L 808.616632 115.915793 
L 813.044994 115.915793 
L 817.965396 115.414676 
L 826.33008 115.414676 
L 829.282321 114.913559 
L 834.694763 114.412442 
L 864.463196 114.412442 
L 868.153498 113.410208 
L 882.668685 113.410208 
L 886.358986 112.909091 
L 983.290909 112.909091 
L 983.290909 112.909091 
" style="fill:none;stroke:#e5ae38;stroke-width:2;"/>
   </g>
   <g id="line2d_28">
    <path clip-path="url(#p1303fd299c)" d="M 129.109091 643.090909 
L 129.109091 641.587558 
L 129.355111 641.587558 
L 129.355111 640.585324 
L 129.601131 640.585324 
L 129.601131 629.059632 
L 129.847151 629.059632 
L 129.847151 628.558515 
L 130.093171 628.558515 
L 130.093171 625.551813 
L 130.339191 625.551813 
L 130.339191 624.549579 
L 130.585212 624.549579 
L 130.585212 623.046228 
L 131.077252 623.046228 
L 131.077252 621.542877 
L 131.323272 621.542877 
L 131.323272 610.518302 
L 131.569292 610.518302 
L 131.569292 599.493727 
L 131.815312 599.493727 
L 131.815312 591.475855 
L 132.061332 591.475855 
L 132.061332 588.97027 
L 132.307352 588.97027 
L 132.307352 580.952397 
L 132.553372 580.952397 
L 132.553372 574.437876 
L 132.799393 574.437876 
L 132.799393 573.435642 
L 133.045413 573.435642 
L 133.045413 570.930057 
L 133.291433 570.930057 
L 133.291433 570.42894 
L 133.537453 570.42894 
L 133.537453 563.914418 
L 133.783473 563.914418 
L 133.783473 562.912184 
L 134.029493 562.912184 
L 134.029493 561.408833 
L 134.275513 561.408833 
L 134.275513 560.907716 
L 134.521533 560.907716 
L 134.521533 556.89878 
L 134.767553 556.89878 
L 134.767553 551.386493 
L 135.013574 551.386493 
L 135.013574 550.384258 
L 135.259594 550.384258 
L 135.259594 546.876439 
L 135.505614 546.876439 
L 135.505614 530.840694 
L 135.751634 530.840694 
L 135.751634 524.326173 
L 135.997654 524.326173 
L 135.997654 518.813886 
L 136.243674 518.813886 
L 136.243674 517.310534 
L 136.489694 517.310534 
L 136.489694 509.292662 
L 136.735714 509.292662 
L 136.735714 507.288194 
L 136.981734 507.288194 
L 136.981734 505.784843 
L 137.227755 505.784843 
L 137.227755 499.771438 
L 137.965815 499.771438 
L 137.965815 498.769204 
L 138.457855 498.769204 
L 138.457855 497.76697 
L 138.703875 497.76697 
L 138.703875 495.261385 
L 138.949895 495.261385 
L 138.949895 484.737927 
L 139.195915 484.737927 
L 139.195915 482.733459 
L 139.441935 482.733459 
L 139.441935 480.728991 
L 139.933976 480.728991 
L 139.933976 479.22564 
L 140.179996 479.22564 
L 140.179996 473.212236 
L 140.672036 473.212236 
L 140.672036 471.708885 
L 140.918056 471.708885 
L 140.918056 466.196597 
L 141.164076 466.196597 
L 141.164076 465.194363 
L 141.410096 465.194363 
L 141.410096 455.67314 
L 141.656116 455.67314 
L 141.656116 444.648565 
L 141.902137 444.648565 
L 141.902137 434.626224 
L 142.148157 434.626224 
L 142.148157 432.621756 
L 142.394177 432.621756 
L 142.394177 431.619522 
L 142.886217 431.619522 
L 142.886217 430.617288 
L 143.378257 430.617288 
L 143.378257 428.61282 
L 143.870297 428.61282 
L 143.870297 425.105001 
L 144.362338 425.105001 
L 144.362338 422.599416 
L 144.854378 422.599416 
L 144.854378 420.594948 
L 145.100398 420.594948 
L 145.100398 419.592714 
L 145.346418 419.592714 
L 145.346418 417.588245 
L 145.838458 417.588245 
L 145.838458 416.586011 
L 146.330499 416.586011 
L 146.330499 413.078192 
L 146.576519 413.078192 
L 146.576519 410.572607 
L 147.068559 410.572607 
L 147.068559 406.062554 
L 147.314579 406.062554 
L 147.314579 403.556969 
L 147.560599 403.556969 
L 147.560599 403.055852 
L 147.806619 403.055852 
L 147.806619 399.548032 
L 148.052639 399.548032 
L 148.052639 396.040213 
L 148.298659 396.040213 
L 148.298659 392.532394 
L 148.54468 392.532394 
L 148.54468 390.026809 
L 148.7907 390.026809 
L 148.7907 388.523458 
L 149.03672 388.523458 
L 149.03672 387.521224 
L 149.28274 387.521224 
L 149.28274 385.015638 
L 149.52876 385.015638 
L 149.52876 384.013404 
L 150.0208 384.013404 
L 150.0208 380.004468 
L 150.26682 380.004468 
L 150.26682 377.498883 
L 150.51284 377.498883 
L 150.51284 375.494415 
L 150.75886 375.494415 
L 150.75886 374.492181 
L 151.742941 374.492181 
L 151.742941 373.991064 
L 151.988961 373.991064 
L 151.988961 370.483245 
L 152.234981 370.483245 
L 152.234981 369.48101 
L 152.481001 369.48101 
L 152.481001 367.977659 
L 152.727021 367.977659 
L 152.727021 365.472074 
L 153.219062 365.472074 
L 153.219062 362.465372 
L 153.465082 362.465372 
L 153.465082 361.964255 
L 153.957122 361.964255 
L 153.957122 359.45867 
L 154.203142 359.45867 
L 154.203142 358.957553 
L 154.941202 358.957553 
L 154.941202 354.948617 
L 155.187222 354.948617 
L 155.187222 353.946383 
L 155.433243 353.946383 
L 155.433243 351.440797 
L 155.679263 351.440797 
L 155.679263 350.93968 
L 155.925283 350.93968 
L 155.925283 349.436329 
L 156.171303 349.436329 
L 156.171303 347.431861 
L 156.909363 347.431861 
L 156.909363 346.930744 
L 157.155383 346.930744 
L 157.155383 345.92851 
L 157.401403 345.92851 
L 157.401403 345.427393 
L 157.647424 345.427393 
L 157.647424 344.425159 
L 157.893444 344.425159 
L 157.893444 342.420691 
L 158.139464 342.420691 
L 158.139464 341.418457 
L 158.385484 341.418457 
L 158.385484 337.910638 
L 158.631504 337.910638 
L 158.631504 330.894999 
L 159.369564 330.894999 
L 159.369564 330.393882 
L 159.615584 330.393882 
L 159.615584 328.890531 
L 159.861605 328.890531 
L 159.861605 328.389414 
L 160.353645 328.389414 
L 160.353645 323.879361 
L 160.599665 323.879361 
L 160.599665 322.877127 
L 160.845685 322.877127 
L 160.845685 315.861488 
L 161.337725 315.861488 
L 161.337725 314.859254 
L 161.583745 314.859254 
L 161.583745 313.85702 
L 161.829765 313.85702 
L 161.829765 312.854786 
L 162.075786 312.854786 
L 162.075786 311.852552 
L 162.813846 311.852552 
L 162.813846 310.850318 
L 163.059866 310.850318 
L 163.059866 307.843616 
L 163.305886 307.843616 
L 163.305886 307.342499 
L 163.551906 307.342499 
L 163.551906 306.340265 
L 163.797926 301.329094 
L 164.043946 301.329094 
L 164.043946 300.827977 
L 164.535987 300.827977 
L 164.535987 298.823509 
L 165.028027 298.823509 
L 165.028027 297.821275 
L 165.274047 297.821275 
L 165.274047 297.320158 
L 165.520067 297.320158 
L 165.520067 295.31569 
L 165.766087 295.31569 
L 165.766087 293.812339 
L 166.012107 293.812339 
L 166.012107 292.810105 
L 166.258127 292.810105 
L 166.258127 292.308988 
L 166.504147 292.308988 
L 166.504147 291.807871 
L 166.996188 291.807871 
L 166.996188 290.805637 
L 167.488228 290.805637 
L 167.488228 290.30452 
L 167.734248 290.30452 
L 167.734248 286.295583 
L 167.980268 286.295583 
L 167.980268 285.794466 
L 168.472308 285.794466 
L 168.472308 284.792232 
L 168.718328 284.792232 
L 168.718328 283.288881 
L 169.210369 283.288881 
L 169.210369 282.787764 
L 169.456389 282.787764 
L 169.456389 281.78553 
L 169.702409 281.78553 
L 169.702409 277.776594 
L 171.17853 277.776594 
L 171.17853 277.275477 
L 171.91659 277.275477 
L 171.91659 276.273243 
L 172.40863 276.273243 
L 172.40863 275.271009 
L 173.14669 275.271009 
L 173.14669 274.268775 
L 173.392711 274.268775 
L 173.392711 273.767658 
L 173.638731 273.767658 
L 173.638731 272.765424 
L 173.884751 272.765424 
L 173.884751 272.264307 
L 174.130771 272.264307 
L 174.130771 271.262073 
L 174.376791 271.262073 
L 174.376791 269.758721 
L 174.868831 269.758721 
L 174.868831 266.752019 
L 175.852912 266.752019 
L 175.852912 265.248668 
L 176.590972 265.248668 
L 176.590972 263.2442 
L 176.836992 263.2442 
L 176.836992 262.743083 
L 177.083012 262.743083 
L 177.083012 261.740849 
L 177.821072 261.740849 
L 177.821072 260.738615 
L 178.313113 260.738615 
L 178.313113 260.237498 
L 178.559133 260.237498 
L 178.559133 259.736381 
L 178.805153 259.736381 
L 178.805153 258.734147 
L 179.297193 258.734147 
L 179.297193 258.23303 
L 179.543213 258.23303 
L 179.543213 257.230796 
L 180.281274 257.230796 
L 180.281274 256.228562 
L 180.527294 256.228562 
L 180.527294 254.725211 
L 180.773314 254.725211 
L 180.773314 254.224093 
L 181.019334 254.224093 
L 181.019334 253.722976 
L 181.511374 253.722976 
L 181.511374 253.221859 
L 181.757394 253.221859 
L 181.757394 252.219625 
L 182.003414 252.219625 
L 182.003414 249.71404 
L 182.495455 249.71404 
L 182.495455 248.210689 
L 182.741475 248.210689 
L 182.741475 247.709572 
L 182.987495 247.709572 
L 182.987495 245.705104 
L 183.479535 245.705104 
L 183.479535 244.70287 
L 184.709636 244.70287 
L 184.709636 244.201753 
L 185.201676 244.201753 
L 185.201676 243.700636 
L 185.693716 243.700636 
L 185.693716 242.197285 
L 185.939736 242.197285 
L 185.939736 240.693934 
L 186.431776 240.693934 
L 186.431776 240.192817 
L 188.153917 240.192817 
L 188.153917 239.6917 
L 188.399937 239.6917 
L 188.399937 238.689466 
L 189.137997 238.689466 
L 189.137997 237.687231 
L 189.630038 237.687231 
L 189.630038 237.186114 
L 190.122078 237.186114 
L 190.122078 236.684997 
L 190.614118 236.684997 
L 190.614118 235.682763 
L 192.090239 235.682763 
L 192.090239 234.680529 
L 192.336259 234.680529 
L 192.336259 233.177178 
L 192.582279 233.177178 
L 192.582279 232.676061 
L 193.566359 232.676061 
L 193.566359 232.174944 
L 193.81238 232.174944 
L 193.81238 231.673827 
L 195.53452 231.673827 
L 195.53452 231.17271 
L 196.764621 231.17271 
L 196.764621 230.671593 
L 197.010641 230.671593 
L 197.010641 229.669359 
L 198.732782 229.669359 
L 198.732782 229.168242 
L 199.716862 229.168242 
L 199.716862 228.667125 
L 199.962882 228.667125 
L 199.962882 226.662657 
L 200.454922 226.662657 
L 200.454922 225.660423 
L 200.700943 225.660423 
L 200.700943 225.159306 
L 200.946963 225.159306 
L 200.946963 224.658189 
L 201.685023 224.658189 
L 201.685023 224.157072 
L 201.931043 224.157072 
L 201.931043 223.655955 
L 202.177063 223.655955 
L 202.177063 223.154838 
L 203.653184 223.154838 
L 203.653184 222.152604 
L 203.899204 222.152604 
L 203.899204 221.150369 
L 204.145224 221.150369 
L 204.145224 220.649252 
L 204.391244 220.649252 
L 204.391244 220.148135 
L 206.113385 220.148135 
L 206.113385 219.145901 
L 206.851445 219.145901 
L 206.851445 218.644784 
L 207.343486 218.644784 
L 207.343486 218.143667 
L 208.081546 218.143667 
L 208.081546 217.64255 
L 209.065626 217.64255 
L 209.065626 217.141433 
L 209.803687 217.141433 
L 209.803687 216.139199 
L 211.033787 216.139199 
L 211.033787 215.638082 
L 211.279807 215.638082 
L 211.279807 215.136965 
L 211.771848 215.136965 
L 211.771848 214.635848 
L 212.017868 214.635848 
L 212.017868 214.134731 
L 212.263888 214.134731 
L 212.263888 213.633614 
L 212.509908 213.633614 
L 212.509908 212.63138 
L 213.986028 212.63138 
L 213.986028 211.629146 
L 214.232049 211.629146 
L 214.232049 211.128029 
L 214.724089 211.128029 
L 214.724089 210.626912 
L 215.216129 210.626912 
L 215.216129 210.125795 
L 215.462149 210.125795 
L 215.462149 209.624678 
L 217.43031 209.624678 
L 217.43031 208.622444 
L 217.92235 208.622444 
L 217.92235 208.121327 
L 218.41439 208.121327 
L 218.41439 207.62021 
L 219.398471 207.62021 
L 219.398471 206.116859 
L 219.644491 206.116859 
L 219.644491 205.615742 
L 219.890511 205.615742 
L 219.890511 205.114625 
L 220.136531 205.114625 
L 220.136531 204.613507 
L 220.382551 204.613507 
L 220.382551 204.11239 
L 225.056933 204.11239 
L 225.056933 203.110156 
L 225.302953 203.110156 
L 225.302953 202.609039 
L 225.794994 202.609039 
L 225.794994 202.107922 
L 226.287034 202.107922 
L 226.287034 201.606805 
L 228.747235 201.606805 
L 228.747235 201.105688 
L 229.485295 201.105688 
L 229.485295 200.604571 
L 230.715396 200.604571 
L 230.715396 200.103454 
L 230.961416 200.103454 
L 230.961416 199.602337 
L 232.437537 199.602337 
L 232.437537 199.10122 
L 232.929577 199.10122 
L 232.929577 198.600103 
L 234.897738 198.600103 
L 234.897738 198.098986 
L 236.127838 198.098986 
L 236.127838 197.096752 
L 236.865899 197.096752 
L 236.865899 196.595635 
L 238.342019 196.595635 
L 238.342019 196.094518 
L 240.06416 196.094518 
L 240.06416 195.593401 
L 240.31018 195.593401 
L 240.31018 195.092284 
L 240.80222 195.092284 
L 240.80222 194.591167 
L 243.508442 194.591167 
L 243.508442 194.09005 
L 244.246502 194.09005 
L 244.246502 193.588933 
L 245.722623 193.588933 
L 245.722623 193.087816 
L 245.968643 193.087816 
L 245.968643 192.586699 
L 247.444763 192.586699 
L 247.444763 192.085582 
L 248.920884 192.085582 
L 248.920884 191.584465 
L 249.904964 191.584465 
L 249.904964 191.083348 
L 250.397005 191.083348 
L 250.397005 190.081114 
L 251.381085 190.081114 
L 251.381085 189.579997 
L 251.873125 189.579997 
L 251.873125 188.577763 
L 252.611186 188.577763 
L 252.611186 188.076645 
L 255.071387 188.076645 
L 255.071387 187.575528 
L 256.793527 187.575528 
L 256.793527 187.074411 
L 258.515668 187.074411 
L 258.515668 186.573294 
L 258.761688 186.573294 
L 258.761688 186.072177 
L 259.007708 186.072177 
L 259.007708 185.57106 
L 260.729849 185.57106 
L 260.729849 185.069943 
L 260.975869 185.069943 
L 260.975869 184.568826 
L 261.221889 184.568826 
L 261.221889 184.067709 
L 261.46791 184.067709 
L 261.46791 183.065475 
L 261.71393 183.065475 
L 261.71393 182.564358 
L 265.404231 182.564358 
L 265.404231 182.063241 
L 265.896271 182.063241 
L 265.896271 181.562124 
L 266.142292 181.562124 
L 266.142292 181.061007 
L 268.110452 181.061007 
L 268.110452 180.55989 
L 269.586573 180.55989 
L 269.586573 180.058773 
L 271.308714 180.058773 
L 271.308714 179.557656 
L 271.554734 179.557656 
L 271.554734 179.056539 
L 274.014935 179.056539 
L 274.014935 178.054305 
L 275.737076 178.054305 
L 275.737076 177.052071 
L 280.903498 177.052071 
L 280.903498 176.550954 
L 281.149518 176.550954 
L 281.149518 176.049837 
L 282.871659 176.049837 
L 282.871659 175.54872 
L 284.83982 175.54872 
L 284.83982 175.047603 
L 289.022162 175.047603 
L 289.022162 174.546486 
L 289.514202 174.546486 
L 289.514202 174.045369 
L 290.744302 174.045369 
L 290.744302 173.544252 
L 291.482363 173.544252 
L 291.482363 173.043135 
L 294.926644 173.043135 
L 294.926644 172.542018 
L 295.418685 172.542018 
L 295.418685 172.0409 
L 295.910725 172.0409 
L 295.910725 171.539783 
L 297.632866 171.539783 
L 297.632866 171.038666 
L 298.124906 171.038666 
L 298.124906 170.537549 
L 298.370926 170.537549 
L 298.370926 170.036432 
L 300.585107 170.036432 
L 300.585107 169.535315 
L 300.831127 169.535315 
L 300.831127 169.034198 
L 302.307248 169.034198 
L 302.307248 168.533081 
L 303.045308 168.533081 
L 303.045308 168.031964 
L 304.767449 168.031964 
L 304.767449 167.530847 
L 305.751529 167.530847 
L 305.751529 167.02973 
L 307.22765 167.02973 
L 307.22765 166.528613 
L 307.47367 166.528613 
L 307.47367 166.027496 
L 308.70377 166.027496 
L 308.70377 165.025262 
L 313.132132 165.025262 
L 313.132132 164.524145 
L 313.378152 164.524145 
L 313.378152 164.023028 
L 322.726917 164.023028 
L 322.726917 163.521911 
L 323.218957 163.521911 
L 323.218957 163.020794 
L 323.957017 163.020794 
L 323.957017 161.517443 
L 335.519962 161.517443 
L 335.519962 160.515209 
L 336.996083 160.515209 
L 336.996083 160.014092 
L 341.424445 160.014092 
L 341.424445 159.512975 
L 344.868726 159.512975 
L 344.868726 159.011858 
L 348.313008 159.011858 
L 348.313008 158.510741 
L 350.281169 158.510741 
L 350.281169 158.009624 
L 357.415752 158.009624 
L 357.415752 157.508507 
L 363.320235 157.508507 
L 363.320235 156.506273 
L 364.550335 156.506273 
L 364.550335 156.005156 
L 367.994617 156.005156 
L 367.994617 155.504038 
L 372.668999 155.504038 
L 372.668999 155.002921 
L 375.37522 155.002921 
L 375.37522 154.501804 
L 380.295622 154.501804 
L 380.295622 153.49957 
L 388.168266 153.49957 
L 388.168266 152.998453 
L 391.612547 152.998453 
L 391.612547 152.497336 
L 399.731211 152.497336 
L 399.731211 151.996219 
L 407.603854 151.996219 
L 407.603854 151.495102 
L 416.460578 151.495102 
L 416.460578 150.993985 
L 430.975765 150.993985 
L 430.975765 149.991751 
L 433.681986 149.991751 
L 433.681986 149.490634 
L 442.53871 149.490634 
L 442.53871 148.989517 
L 443.03075 148.989517 
L 443.03075 148.4884 
L 449.181253 148.4884 
L 449.181253 147.987283 
L 452.625534 147.987283 
L 452.625534 147.486166 
L 458.776037 147.486166 
L 458.776037 146.985049 
L 468.370821 146.985049 
L 468.370821 146.483932 
L 468.862861 146.483932 
L 468.862861 145.982815 
L 471.815103 145.982815 
L 471.815103 145.481698 
L 473.291223 145.481698 
L 473.291223 144.980581 
L 479.195706 144.980581 
L 479.195706 143.978347 
L 485.100189 143.978347 
L 485.100189 143.47723 
L 486.084269 143.47723 
L 486.084269 142.976113 
L 493.710892 142.976113 
L 493.710892 142.474996 
L 497.893234 142.474996 
L 497.893234 141.472762 
L 498.385274 141.472762 
L 498.385274 140.971645 
L 498.631295 140.971645 
L 498.631295 140.470528 
L 504.289757 140.470528 
L 504.289757 139.969411 
L 506.749958 139.969411 
L 506.749958 139.468294 
L 524.955446 139.468294 
L 524.955446 138.466059 
L 529.383808 138.466059 
L 529.383808 137.964942 
L 541.930834 137.964942 
L 541.930834 137.463825 
L 543.652974 137.463825 
L 543.652974 136.962708 
L 547.835316 136.962708 
L 547.835316 136.461591 
L 572.437327 136.461591 
L 572.437327 135.459357 
L 575.143548 135.459357 
L 575.143548 134.95824 
L 602.20576 134.95824 
L 602.20576 134.457123 
L 614.014726 134.457123 
L 614.014726 133.956006 
L 627.545832 133.956006 
L 627.545832 133.454889 
L 628.037872 133.454889 
L 628.037872 132.953772 
L 634.680415 132.953772 
L 634.680415 132.452655 
L 667.401089 132.452655 
L 667.401089 131.951538 
L 695.447382 131.951538 
L 695.447382 131.450421 
L 703.320025 131.450421 
L 703.320025 130.949304 
L 706.518287 130.949304 
L 706.518287 130.448187 
L 710.946649 130.448187 
L 710.946649 129.94707 
L 714.88297 129.94707 
L 714.88297 128.944836 
L 764.086992 128.944836 
L 764.086992 128.443719 
L 772.205656 128.443719 
L 772.205656 127.942602 
L 772.697696 127.942602 
L 772.697696 127.441485 
L 775.895957 127.441485 
L 775.895957 126.940368 
L 777.372078 126.940368 
L 777.372078 126.439251 
L 779.832279 126.439251 
L 779.832279 125.938134 
L 816.489275 125.938134 
L 816.489275 125.437017 
L 822.885798 125.437017 
L 822.885798 124.9359 
L 829.774361 124.9359 
L 829.774361 124.434783 
L 851.670151 124.434783 
L 851.670151 123.933666 
L 852.654231 123.933666 
L 852.654231 123.432549 
L 853.392292 123.432549 
L 853.392292 122.931432 
L 861.756975 122.931432 
L 861.756975 122.430314 
L 868.399518 122.430314 
L 868.399518 121.42808 
L 873.31992 121.42808 
L 873.31992 120.926963 
L 873.565941 120.926963 
L 873.565941 120.425846 
L 886.605006 120.425846 
L 886.605006 119.924729 
L 893.001529 119.924729 
L 893.001529 119.423612 
L 919.079661 119.423612 
L 919.079661 118.922495 
L 919.325681 118.922495 
L 919.325681 118.421378 
L 925.968224 118.421378 
L 925.968224 117.920261 
L 929.904545 117.920261 
L 929.904545 117.419144 
L 936.793109 117.419144 
L 936.793109 116.918027 
L 938.023209 116.918027 
L 938.023209 116.41691 
L 941.22147 116.41691 
L 941.22147 115.915793 
L 941.713511 115.915793 
L 941.713511 115.414676 
L 946.141873 115.414676 
L 946.141873 114.913559 
L 961.149099 114.913559 
L 961.149099 114.412442 
L 966.807562 114.412442 
L 966.807562 113.911325 
L 968.283682 113.911325 
L 968.283682 113.410208 
L 971.973984 113.410208 
L 971.973984 112.909091 
L 983.290909 112.909091 
L 983.290909 112.909091 
" style="fill:none;stroke:#6d904f;stroke-width:2;"/>
   </g>
   <g id="line2d_29">
    <path clip-path="url(#p1303fd299c)" d="M 129.109091 643.090909 
L 983.290909 112.909091 
" style="fill:none;stroke:#ee82ee;stroke-dasharray:14.8,6.4;stroke-dashoffset:0;stroke-width:4;"/>
   </g>
   <g id="patch_3">
    <path d="M 86.4 669.6 
L 86.4 86.4 
" style="fill:none;stroke:#f0f0f0;stroke-linecap:square;stroke-linejoin:miter;stroke-width:3;"/>
   </g>
   <g id="patch_4">
    <path d="M 1026 669.6 
L 1026 86.4 
" style="fill:none;stroke:#f0f0f0;stroke-linecap:square;stroke-linejoin:miter;stroke-width:3;"/>
   </g>
   <g id="patch_5">
    <path d="M 86.4 669.6 
L 1026 669.6 
" style="fill:none;stroke:#f0f0f0;stroke-linecap:square;stroke-linejoin:miter;stroke-width:3;"/>
   </g>
   <g id="patch_6">
    <path d="M 86.4 86.4 
L 1026 86.4 
" style="fill:none;stroke:#f0f0f0;stroke-linecap:square;stroke-linejoin:miter;stroke-width:3;"/>
   </g>
   <g id="text_15">
    <!-- ROC Scores -->
    <g transform="translate(491.5125 80.4)scale(0.2 -0.2)">
     <defs>
      <path d="M 35.890625 40.578125 
Q 41.796875 40.578125 44.359375 42.765625 
Q 46.921875 44.96875 46.921875 50 
Q 46.921875 54.984375 44.359375 57.125 
Q 41.796875 59.28125 35.890625 59.28125 
L 27.984375 59.28125 
L 27.984375 40.578125 
z
M 27.984375 27.59375 
L 27.984375 0 
L 9.1875 0 
L 9.1875 72.90625 
L 37.890625 72.90625 
Q 52.296875 72.90625 59 68.0625 
Q 65.71875 63.234375 65.71875 52.78125 
Q 65.71875 45.5625 62.21875 40.921875 
Q 58.734375 36.28125 51.703125 34.078125 
Q 55.5625 33.203125 58.609375 30.09375 
Q 61.671875 27 64.796875 20.703125 
L 75 0 
L 54.984375 0 
L 46.09375 18.109375 
Q 43.40625 23.578125 40.640625 25.578125 
Q 37.890625 27.59375 33.296875 27.59375 
z
" id="DejaVuSans-Bold-82"/>
      <path d="M 42.484375 60.59375 
Q 33.890625 60.59375 29.15625 54.25 
Q 24.421875 47.90625 24.421875 36.375 
Q 24.421875 24.90625 29.15625 18.546875 
Q 33.890625 12.203125 42.484375 12.203125 
Q 51.125 12.203125 55.859375 18.546875 
Q 60.59375 24.90625 60.59375 36.375 
Q 60.59375 47.90625 55.859375 54.25 
Q 51.125 60.59375 42.484375 60.59375 
z
M 42.484375 74.21875 
Q 60.0625 74.21875 70.015625 64.15625 
Q 79.984375 54.109375 79.984375 36.375 
Q 79.984375 18.703125 70.015625 8.640625 
Q 60.0625 -1.421875 42.484375 -1.421875 
Q 24.953125 -1.421875 14.96875 8.640625 
Q 4.984375 18.703125 4.984375 36.375 
Q 4.984375 54.109375 14.96875 64.15625 
Q 24.953125 74.21875 42.484375 74.21875 
z
" id="DejaVuSans-Bold-79"/>
      <path d="M 67 4 
Q 61.8125 1.3125 56.203125 -0.046875 
Q 50.59375 -1.421875 44.484375 -1.421875 
Q 26.265625 -1.421875 15.625 8.765625 
Q 4.984375 18.953125 4.984375 36.375 
Q 4.984375 53.859375 15.625 64.03125 
Q 26.265625 74.21875 44.484375 74.21875 
Q 50.59375 74.21875 56.203125 72.84375 
Q 61.8125 71.484375 67 68.796875 
L 67 53.71875 
Q 61.765625 57.28125 56.6875 58.9375 
Q 51.609375 60.59375 46 60.59375 
Q 35.9375 60.59375 30.171875 54.140625 
Q 24.421875 47.703125 24.421875 36.375 
Q 24.421875 25.09375 30.171875 18.640625 
Q 35.9375 12.203125 46 12.203125 
Q 51.609375 12.203125 56.6875 13.859375 
Q 61.765625 15.53125 67 19.09375 
z
" id="DejaVuSans-Bold-67"/>
      <path id="DejaVuSans-Bold-32"/>
      <path d="M 59.90625 70.609375 
L 59.90625 55.171875 
Q 53.90625 57.859375 48.1875 59.21875 
Q 42.484375 60.59375 37.40625 60.59375 
Q 30.671875 60.59375 27.4375 58.734375 
Q 24.21875 56.890625 24.21875 52.984375 
Q 24.21875 50.046875 26.390625 48.40625 
Q 28.5625 46.78125 34.28125 45.609375 
L 42.28125 44 
Q 54.4375 41.546875 59.5625 36.5625 
Q 64.703125 31.59375 64.703125 22.40625 
Q 64.703125 10.359375 57.546875 4.46875 
Q 50.390625 -1.421875 35.6875 -1.421875 
Q 28.765625 -1.421875 21.78125 -0.09375 
Q 14.796875 1.21875 7.8125 3.8125 
L 7.8125 19.671875 
Q 14.796875 15.96875 21.3125 14.078125 
Q 27.828125 12.203125 33.890625 12.203125 
Q 40.046875 12.203125 43.3125 14.25 
Q 46.578125 16.3125 46.578125 20.125 
Q 46.578125 23.53125 44.359375 25.390625 
Q 42.140625 27.25 35.5 28.71875 
L 28.21875 30.328125 
Q 17.28125 32.671875 12.21875 37.796875 
Q 7.171875 42.921875 7.171875 51.609375 
Q 7.171875 62.5 14.203125 68.359375 
Q 21.234375 74.21875 34.421875 74.21875 
Q 40.4375 74.21875 46.78125 73.3125 
Q 53.125 72.40625 59.90625 70.609375 
z
" id="DejaVuSans-Bold-83"/>
      <path d="M 52.59375 52.984375 
L 52.59375 38.71875 
Q 49.03125 41.15625 45.4375 42.328125 
Q 41.84375 43.5 37.984375 43.5 
Q 30.671875 43.5 26.59375 39.234375 
Q 22.515625 34.96875 22.515625 27.296875 
Q 22.515625 19.625 26.59375 15.34375 
Q 30.671875 11.078125 37.984375 11.078125 
Q 42.09375 11.078125 45.78125 12.296875 
Q 49.46875 13.53125 52.59375 15.921875 
L 52.59375 1.609375 
Q 48.484375 0.09375 44.265625 -0.65625 
Q 40.046875 -1.421875 35.796875 -1.421875 
Q 21 -1.421875 12.640625 6.171875 
Q 4.296875 13.765625 4.296875 27.296875 
Q 4.296875 40.828125 12.640625 48.40625 
Q 21 56 35.796875 56 
Q 40.09375 56 44.265625 55.25 
Q 48.4375 54.5 52.59375 52.984375 
z
" id="DejaVuSans-Bold-99"/>
      <path d="M 34.421875 43.5 
Q 28.609375 43.5 25.5625 39.328125 
Q 22.515625 35.15625 22.515625 27.296875 
Q 22.515625 19.4375 25.5625 15.25 
Q 28.609375 11.078125 34.421875 11.078125 
Q 40.140625 11.078125 43.15625 15.25 
Q 46.1875 19.4375 46.1875 27.296875 
Q 46.1875 35.15625 43.15625 39.328125 
Q 40.140625 43.5 34.421875 43.5 
z
M 34.421875 56 
Q 48.53125 56 56.46875 48.375 
Q 64.40625 40.765625 64.40625 27.296875 
Q 64.40625 13.8125 56.46875 6.1875 
Q 48.53125 -1.421875 34.421875 -1.421875 
Q 20.265625 -1.421875 12.28125 6.1875 
Q 4.296875 13.8125 4.296875 27.296875 
Q 4.296875 40.765625 12.28125 48.375 
Q 20.265625 56 34.421875 56 
z
" id="DejaVuSans-Bold-111"/>
      <path d="M 49.03125 39.796875 
Q 46.734375 40.875 44.453125 41.375 
Q 42.1875 41.890625 39.890625 41.890625 
Q 33.15625 41.890625 29.515625 37.5625 
Q 25.875 33.25 25.875 25.203125 
L 25.875 0 
L 8.40625 0 
L 8.40625 54.6875 
L 25.875 54.6875 
L 25.875 45.703125 
Q 29.25 51.078125 33.609375 53.53125 
Q 37.984375 56 44.09375 56 
Q 44.96875 56 45.984375 55.921875 
Q 47.015625 55.859375 48.96875 55.609375 
z
" id="DejaVuSans-Bold-114"/>
      <path d="M 62.984375 27.484375 
L 62.984375 22.515625 
L 22.125 22.515625 
Q 22.75 16.359375 26.5625 13.28125 
Q 30.375 10.203125 37.203125 10.203125 
Q 42.71875 10.203125 48.5 11.84375 
Q 54.296875 13.484375 60.40625 16.796875 
L 60.40625 3.328125 
Q 54.203125 0.984375 48 -0.21875 
Q 41.796875 -1.421875 35.59375 -1.421875 
Q 20.75 -1.421875 12.515625 6.125 
Q 4.296875 13.671875 4.296875 27.296875 
Q 4.296875 40.671875 12.375 48.328125 
Q 20.453125 56 34.625 56 
Q 47.515625 56 55.25 48.234375 
Q 62.984375 40.484375 62.984375 27.484375 
z
M 45.015625 33.296875 
Q 45.015625 38.28125 42.109375 41.328125 
Q 39.203125 44.390625 34.515625 44.390625 
Q 29.4375 44.390625 26.265625 41.53125 
Q 23.09375 38.671875 22.3125 33.296875 
z
" id="DejaVuSans-Bold-101"/>
      <path d="M 51.125 52.984375 
L 51.125 39.703125 
Q 45.515625 42.046875 40.28125 43.21875 
Q 35.0625 44.390625 30.421875 44.390625 
Q 25.4375 44.390625 23.015625 43.140625 
Q 20.609375 41.890625 20.609375 39.3125 
Q 20.609375 37.203125 22.4375 36.078125 
Q 24.265625 34.96875 29 34.421875 
L 32.078125 33.984375 
Q 45.515625 32.28125 50.140625 28.375 
Q 54.78125 24.46875 54.78125 16.109375 
Q 54.78125 7.375 48.328125 2.96875 
Q 41.890625 -1.421875 29.109375 -1.421875 
Q 23.6875 -1.421875 17.890625 -0.5625 
Q 12.109375 0.296875 6 2 
L 6 15.28125 
Q 11.234375 12.75 16.71875 11.46875 
Q 22.21875 10.203125 27.875 10.203125 
Q 33.015625 10.203125 35.59375 11.609375 
Q 38.1875 13.03125 38.1875 15.828125 
Q 38.1875 18.171875 36.40625 19.3125 
Q 34.625 20.453125 29.296875 21.09375 
L 26.21875 21.484375 
Q 14.546875 22.953125 9.859375 26.90625 
Q 5.171875 30.859375 5.171875 38.921875 
Q 5.171875 47.609375 11.125 51.796875 
Q 17.09375 56 29.390625 56 
Q 34.234375 56 39.546875 55.265625 
Q 44.875 54.546875 51.125 52.984375 
z
" id="DejaVuSans-Bold-115"/>
     </defs>
     <use xlink:href="#DejaVuSans-Bold-82"/>
     <use x="77.001953" xlink:href="#DejaVuSans-Bold-79"/>
     <use x="162.011719" xlink:href="#DejaVuSans-Bold-67"/>
     <use x="235.400391" xlink:href="#DejaVuSans-Bold-32"/>
     <use x="270.214844" xlink:href="#DejaVuSans-Bold-83"/>
     <use x="342.236328" xlink:href="#DejaVuSans-Bold-99"/>
     <use x="401.513672" xlink:href="#DejaVuSans-Bold-111"/>
     <use x="470.214844" xlink:href="#DejaVuSans-Bold-114"/>
     <use x="519.53125" xlink:href="#DejaVuSans-Bold-101"/>
     <use x="587.353516" xlink:href="#DejaVuSans-Bold-115"/>
    </g>
   </g>
   <g id="legend_1">
    <g id="patch_7">
     <path d="M 866.047812 662.6 
L 1016.2 662.6 
Q 1019 662.6 1019 659.8 
L 1019 579.0025 
Q 1019 576.2025 1016.2 576.2025 
L 866.047812 576.2025 
Q 863.247813 576.2025 863.247813 579.0025 
L 863.247813 659.8 
Q 863.247813 662.6 866.047812 662.6 
z
" style="fill:#f0f0f0;opacity:0.8;stroke:#cccccc;stroke-linejoin:miter;stroke-width:0.5;"/>
    </g>
    <g id="line2d_30">
     <path d="M 868.847813 587.540313 
L 896.847813 587.540313 
" style="fill:none;stroke:#008fd5;stroke-width:2;"/>
    </g>
    <g id="line2d_31"/>
    <g id="text_16">
     <!-- KNN -->
     <g transform="translate(908.047813 592.440313)scale(0.14 -0.14)">
      <defs>
       <path d="M 9.8125 72.90625 
L 19.671875 72.90625 
L 19.671875 42.09375 
L 52.390625 72.90625 
L 65.09375 72.90625 
L 28.90625 38.921875 
L 67.671875 0 
L 54.6875 0 
L 19.671875 35.109375 
L 19.671875 0 
L 9.8125 0 
z
" id="DejaVuSans-75"/>
       <path d="M 9.8125 72.90625 
L 23.09375 72.90625 
L 55.421875 11.921875 
L 55.421875 72.90625 
L 64.984375 72.90625 
L 64.984375 0 
L 51.703125 0 
L 19.390625 60.984375 
L 19.390625 0 
L 9.8125 0 
z
" id="DejaVuSans-78"/>
      </defs>
      <use xlink:href="#DejaVuSans-75"/>
      <use x="65.576172" xlink:href="#DejaVuSans-78"/>
      <use x="140.380859" xlink:href="#DejaVuSans-78"/>
     </g>
    </g>
    <g id="line2d_32">
     <path d="M 868.847813 608.089688 
L 896.847813 608.089688 
" style="fill:none;stroke:#fc4f30;stroke-width:2;"/>
    </g>
    <g id="line2d_33"/>
    <g id="text_17">
     <!-- Logit -->
     <g transform="translate(908.047813 612.989688)scale(0.14 -0.14)">
      <defs>
       <path d="M 9.8125 72.90625 
L 19.671875 72.90625 
L 19.671875 8.296875 
L 55.171875 8.296875 
L 55.171875 0 
L 9.8125 0 
z
" id="DejaVuSans-76"/>
       <path d="M 45.40625 27.984375 
Q 45.40625 37.75 41.375 43.109375 
Q 37.359375 48.484375 30.078125 48.484375 
Q 22.859375 48.484375 18.828125 43.109375 
Q 14.796875 37.75 14.796875 27.984375 
Q 14.796875 18.265625 18.828125 12.890625 
Q 22.859375 7.515625 30.078125 7.515625 
Q 37.359375 7.515625 41.375 12.890625 
Q 45.40625 18.265625 45.40625 27.984375 
z
M 54.390625 6.78125 
Q 54.390625 -7.171875 48.1875 -13.984375 
Q 42 -20.796875 29.203125 -20.796875 
Q 24.46875 -20.796875 20.265625 -20.09375 
Q 16.0625 -19.390625 12.109375 -17.921875 
L 12.109375 -9.1875 
Q 16.0625 -11.328125 19.921875 -12.34375 
Q 23.78125 -13.375 27.78125 -13.375 
Q 36.625 -13.375 41.015625 -8.765625 
Q 45.40625 -4.15625 45.40625 5.171875 
L 45.40625 9.625 
Q 42.625 4.78125 38.28125 2.390625 
Q 33.9375 0 27.875 0 
Q 17.828125 0 11.671875 7.65625 
Q 5.515625 15.328125 5.515625 27.984375 
Q 5.515625 40.671875 11.671875 48.328125 
Q 17.828125 56 27.875 56 
Q 33.9375 56 38.28125 53.609375 
Q 42.625 51.21875 45.40625 46.390625 
L 45.40625 54.6875 
L 54.390625 54.6875 
z
" id="DejaVuSans-103"/>
      </defs>
      <use xlink:href="#DejaVuSans-76"/>
      <use x="53.962891" xlink:href="#DejaVuSans-111"/>
      <use x="115.144531" xlink:href="#DejaVuSans-103"/>
      <use x="178.621094" xlink:href="#DejaVuSans-105"/>
      <use x="206.404297" xlink:href="#DejaVuSans-116"/>
     </g>
    </g>
    <g id="line2d_34">
     <path d="M 868.847813 628.639063 
L 896.847813 628.639063 
" style="fill:none;stroke:#e5ae38;stroke-width:2;"/>
    </g>
    <g id="line2d_35"/>
    <g id="text_18">
     <!-- Random Forest -->
     <g transform="translate(908.047813 633.539062)scale(0.14 -0.14)">
      <defs>
       <path d="M 44.390625 34.1875 
Q 47.5625 33.109375 50.5625 29.59375 
Q 53.5625 26.078125 56.59375 19.921875 
L 66.609375 0 
L 56 0 
L 46.6875 18.703125 
Q 43.0625 26.03125 39.671875 28.421875 
Q 36.28125 30.8125 30.421875 30.8125 
L 19.671875 30.8125 
L 19.671875 0 
L 9.8125 0 
L 9.8125 72.90625 
L 32.078125 72.90625 
Q 44.578125 72.90625 50.734375 67.671875 
Q 56.890625 62.453125 56.890625 51.90625 
Q 56.890625 45.015625 53.6875 40.46875 
Q 50.484375 35.9375 44.390625 34.1875 
z
M 19.671875 64.796875 
L 19.671875 38.921875 
L 32.078125 38.921875 
Q 39.203125 38.921875 42.84375 42.21875 
Q 46.484375 45.515625 46.484375 51.90625 
Q 46.484375 58.296875 42.84375 61.546875 
Q 39.203125 64.796875 32.078125 64.796875 
z
" id="DejaVuSans-82"/>
       <path d="M 54.890625 33.015625 
L 54.890625 0 
L 45.90625 0 
L 45.90625 32.71875 
Q 45.90625 40.484375 42.875 44.328125 
Q 39.84375 48.1875 33.796875 48.1875 
Q 26.515625 48.1875 22.3125 43.546875 
Q 18.109375 38.921875 18.109375 30.90625 
L 18.109375 0 
L 9.078125 0 
L 9.078125 54.6875 
L 18.109375 54.6875 
L 18.109375 46.1875 
Q 21.34375 51.125 25.703125 53.5625 
Q 30.078125 56 35.796875 56 
Q 45.21875 56 50.046875 50.171875 
Q 54.890625 44.34375 54.890625 33.015625 
z
" id="DejaVuSans-110"/>
       <path d="M 45.40625 46.390625 
L 45.40625 75.984375 
L 54.390625 75.984375 
L 54.390625 0 
L 45.40625 0 
L 45.40625 8.203125 
Q 42.578125 3.328125 38.25 0.953125 
Q 33.9375 -1.421875 27.875 -1.421875 
Q 17.96875 -1.421875 11.734375 6.484375 
Q 5.515625 14.40625 5.515625 27.296875 
Q 5.515625 40.1875 11.734375 48.09375 
Q 17.96875 56 27.875 56 
Q 33.9375 56 38.25 53.625 
Q 42.578125 51.265625 45.40625 46.390625 
z
M 14.796875 27.296875 
Q 14.796875 17.390625 18.875 11.75 
Q 22.953125 6.109375 30.078125 6.109375 
Q 37.203125 6.109375 41.296875 11.75 
Q 45.40625 17.390625 45.40625 27.296875 
Q 45.40625 37.203125 41.296875 42.84375 
Q 37.203125 48.484375 30.078125 48.484375 
Q 22.953125 48.484375 18.875 42.84375 
Q 14.796875 37.203125 14.796875 27.296875 
z
" id="DejaVuSans-100"/>
       <path d="M 52 44.1875 
Q 55.375 50.25 60.0625 53.125 
Q 64.75 56 71.09375 56 
Q 79.640625 56 84.28125 50.015625 
Q 88.921875 44.046875 88.921875 33.015625 
L 88.921875 0 
L 79.890625 0 
L 79.890625 32.71875 
Q 79.890625 40.578125 77.09375 44.375 
Q 74.3125 48.1875 68.609375 48.1875 
Q 61.625 48.1875 57.5625 43.546875 
Q 53.515625 38.921875 53.515625 30.90625 
L 53.515625 0 
L 44.484375 0 
L 44.484375 32.71875 
Q 44.484375 40.625 41.703125 44.40625 
Q 38.921875 48.1875 33.109375 48.1875 
Q 26.21875 48.1875 22.15625 43.53125 
Q 18.109375 38.875 18.109375 30.90625 
L 18.109375 0 
L 9.078125 0 
L 9.078125 54.6875 
L 18.109375 54.6875 
L 18.109375 46.1875 
Q 21.1875 51.21875 25.484375 53.609375 
Q 29.78125 56 35.6875 56 
Q 41.65625 56 45.828125 52.96875 
Q 50 49.953125 52 44.1875 
z
" id="DejaVuSans-109"/>
      </defs>
      <use xlink:href="#DejaVuSans-82"/>
      <use x="67.232422" xlink:href="#DejaVuSans-97"/>
      <use x="128.511719" xlink:href="#DejaVuSans-110"/>
      <use x="191.890625" xlink:href="#DejaVuSans-100"/>
      <use x="255.367188" xlink:href="#DejaVuSans-111"/>
      <use x="316.548828" xlink:href="#DejaVuSans-109"/>
      <use x="413.960938" xlink:href="#DejaVuSans-32"/>
      <use x="445.748047" xlink:href="#DejaVuSans-70"/>
      <use x="499.642578" xlink:href="#DejaVuSans-111"/>
      <use x="560.824219" xlink:href="#DejaVuSans-114"/>
      <use x="599.6875" xlink:href="#DejaVuSans-101"/>
      <use x="661.210938" xlink:href="#DejaVuSans-115"/>
      <use x="713.310547" xlink:href="#DejaVuSans-116"/>
     </g>
    </g>
    <g id="line2d_36">
     <path d="M 868.847813 649.188438 
L 896.847813 649.188438 
" style="fill:none;stroke:#6d904f;stroke-width:2;"/>
    </g>
    <g id="line2d_37"/>
    <g id="text_19">
     <!-- SVC -->
     <g transform="translate(908.047813 654.088438)scale(0.14 -0.14)">
      <defs>
       <path d="M 53.515625 70.515625 
L 53.515625 60.890625 
Q 47.90625 63.578125 42.921875 64.890625 
Q 37.9375 66.21875 33.296875 66.21875 
Q 25.25 66.21875 20.875 63.09375 
Q 16.5 59.96875 16.5 54.203125 
Q 16.5 49.359375 19.40625 46.890625 
Q 22.3125 44.4375 30.421875 42.921875 
L 36.375 41.703125 
Q 47.40625 39.59375 52.65625 34.296875 
Q 57.90625 29 57.90625 20.125 
Q 57.90625 9.515625 50.796875 4.046875 
Q 43.703125 -1.421875 29.984375 -1.421875 
Q 24.8125 -1.421875 18.96875 -0.25 
Q 13.140625 0.921875 6.890625 3.21875 
L 6.890625 13.375 
Q 12.890625 10.015625 18.65625 8.296875 
Q 24.421875 6.59375 29.984375 6.59375 
Q 38.421875 6.59375 43.015625 9.90625 
Q 47.609375 13.234375 47.609375 19.390625 
Q 47.609375 24.75 44.3125 27.78125 
Q 41.015625 30.8125 33.5 32.328125 
L 27.484375 33.5 
Q 16.453125 35.6875 11.515625 40.375 
Q 6.59375 45.0625 6.59375 53.421875 
Q 6.59375 63.09375 13.40625 68.65625 
Q 20.21875 74.21875 32.171875 74.21875 
Q 37.3125 74.21875 42.625 73.28125 
Q 47.953125 72.359375 53.515625 70.515625 
z
" id="DejaVuSans-83"/>
       <path d="M 28.609375 0 
L 0.78125 72.90625 
L 11.078125 72.90625 
L 34.1875 11.53125 
L 57.328125 72.90625 
L 67.578125 72.90625 
L 39.796875 0 
z
" id="DejaVuSans-86"/>
       <path d="M 64.40625 67.28125 
L 64.40625 56.890625 
Q 59.421875 61.53125 53.78125 63.8125 
Q 48.140625 66.109375 41.796875 66.109375 
Q 29.296875 66.109375 22.65625 58.46875 
Q 16.015625 50.828125 16.015625 36.375 
Q 16.015625 21.96875 22.65625 14.328125 
Q 29.296875 6.6875 41.796875 6.6875 
Q 48.140625 6.6875 53.78125 8.984375 
Q 59.421875 11.28125 64.40625 15.921875 
L 64.40625 5.609375 
Q 59.234375 2.09375 53.4375 0.328125 
Q 47.65625 -1.421875 41.21875 -1.421875 
Q 24.65625 -1.421875 15.125 8.703125 
Q 5.609375 18.84375 5.609375 36.375 
Q 5.609375 53.953125 15.125 64.078125 
Q 24.65625 74.21875 41.21875 74.21875 
Q 47.75 74.21875 53.53125 72.484375 
Q 59.328125 70.75 64.40625 67.28125 
z
" id="DejaVuSans-67"/>
      </defs>
      <use xlink:href="#DejaVuSans-83"/>
      <use x="63.476562" xlink:href="#DejaVuSans-86"/>
      <use x="131.884766" xlink:href="#DejaVuSans-67"/>
     </g>
    </g>
   </g>
  </g>
 </g>
 <defs>
  <clipPath id="p1303fd299c">
   <rect height="583.2" width="939.6" x="86.4" y="86.4"/>
  </clipPath>
 </defs>
</svg>
